<svg width="35" height="35" viewBox="0 0 35 35" fill="none" xmlns="http://www.w3.org/2000/svg">
<path d="M17.5 35C27.149 35 35 27.1497 35 17.5C35 15.8345 34.7675 14.1931 34.3072 12.6212C34.0804 11.8482 33.2732 11.4043 32.4981 11.6311C31.7244 11.8571 31.2819 12.6671 31.508 13.4401C31.8893 14.746 32.0833 16.1125 32.0833 17.5C32.0833 25.5411 25.5411 32.0833 17.5 32.0833C9.45887 32.0833 2.91667 25.5411 2.91667 17.5C2.91667 9.45887 9.45887 2.91667 17.5 2.91667C20.4224 2.91667 23.234 3.77116 25.6308 5.38722C26.2981 5.83761 27.2053 5.66066 27.6549 4.99344C28.105 4.32551 27.9294 3.41904 27.2615 2.969C24.3812 1.02681 21.0059 0 17.5 0C7.851 0 0 7.85029 0 17.5C0 27.1497 7.851 35 17.5 35Z" fill="#AC4D2F"/>
<path d="M32.5104 3.34397L17.4998 18.3538L12.6976 13.5523C12.1279 12.983 11.2051 12.983 10.6354 13.5523C10.0661 14.122 10.0661 15.0448 10.6354 15.6145L16.4687 21.4478C16.7539 21.733 17.1263 21.8751 17.4998 21.8751C17.8733 21.8751 18.2457 21.733 18.5309 21.4478L34.5726 5.40615C35.1419 4.83648 35.1419 3.91363 34.5726 3.34397C34.0029 2.77467 33.0801 2.77467 32.5104 3.34397Z" fill="#AC4D2F"/>
</svg>
