<svg width="32" height="26" viewBox="0 0 32 26" fill="none" xmlns="http://www.w3.org/2000/svg">
<path d="M15.9973 5.25488C13.7468 5.25635 11.5449 5.92737 9.65722 7.18672C7.76954 8.44621 6.27738 10.2403 5.36045 12.3521C5.14027 12.8617 5.14027 13.4433 5.36045 13.9529C6.5881 16.7855 8.83775 19.0177 11.6356 20.1794C14.4335 21.3409 17.5611 21.3409 20.3588 20.1794C23.1567 19.0178 25.4062 16.7856 26.634 13.9529C26.8542 13.4433 26.8542 12.8617 26.634 12.3521C25.7171 10.24 24.2249 8.44602 22.3373 7.18672C20.4498 5.92737 18.2478 5.25634 15.9972 5.25488H15.9973ZM25.9027 13.6192C24.7597 16.2569 22.6645 18.336 20.0591 19.4173C17.4537 20.4988 14.5413 20.4988 11.9356 19.4173C9.33009 18.3356 7.23482 16.2568 6.09197 13.6192C5.96536 13.3218 5.96536 12.9838 6.09197 12.6863C7.23501 10.0486 9.33018 7.9696 11.9356 6.88824C14.541 5.80674 17.4533 5.80674 20.0591 6.88824C22.6646 7.96993 24.7598 10.0488 25.9027 12.6863C26.0293 12.9838 26.0293 13.3218 25.9027 13.6192Z" fill="#AC4D2F"/>
<path d="M15.9984 9.45312C15.0436 9.45312 14.1279 9.84287 13.4529 10.5366C12.7777 11.2303 12.3984 12.1712 12.3984 13.1524C12.3984 14.1336 12.7777 15.0745 13.4529 15.7681C14.1279 16.462 15.0436 16.8517 15.9984 16.8517C16.9533 16.8517 17.869 16.4619 18.544 15.7681C19.2192 15.0745 19.5984 14.1336 19.5984 13.1524C19.5974 12.1716 19.2177 11.2314 18.5429 10.5378C17.8679 9.84433 16.9529 9.45425 15.9984 9.45312ZM15.9984 16.0296C15.2558 16.0296 14.5436 15.7265 14.0186 15.1868C13.4934 14.6474 13.1984 13.9156 13.1984 13.1524C13.1984 12.3892 13.4934 11.6575 14.0186 11.118C14.5436 10.5783 15.2557 10.2752 15.9984 10.2752C16.7412 10.2752 17.4532 10.5783 17.9783 11.118C18.5034 11.6574 18.7984 12.3892 18.7984 13.1524C18.7975 13.9152 18.5022 14.6464 17.9774 15.1859C17.4524 15.7252 16.7407 16.0287 15.9984 16.0296Z" fill="#AC4D2F"/>
<line x1="25.3536" y1="4.35355" x2="7.35355" y2="22.3536" stroke="#AC4D2F"/>
</svg>
