<svg width="48" height="48" viewBox="0 0 48 48" fill="none" xmlns="http://www.w3.org/2000/svg">
<circle cx="24" cy="24" r="24" fill="#111113"/>
<mask id="mask0_828_1710" style="mask-type:alpha" maskUnits="userSpaceOnUse" x="14" y="14" width="20" height="20">
<rect x="14" y="14" width="20" height="20" fill="#D9D9D9"/>
</mask>
<g mask="url(#mask0_828_1710)">
<path d="M30.8333 32L25.5833 26.75C25.1667 27.0833 24.6875 27.3472 24.1458 27.5417C23.6042 27.7361 23.0278 27.8333 22.4167 27.8333C20.9028 27.8333 19.6215 27.309 18.5729 26.2604C17.5243 25.2118 17 23.9306 17 22.4167C17 20.9028 17.5243 19.6215 18.5729 18.5729C19.6215 17.5243 20.9028 17 22.4167 17C23.9306 17 25.2118 17.5243 26.2604 18.5729C27.309 19.6215 27.8333 20.9028 27.8333 22.4167C27.8333 23.0278 27.7361 23.6042 27.5417 24.1458C27.3472 24.6875 27.0833 25.1667 26.75 25.5833L32 30.8333L30.8333 32ZM22.4167 26.1667C23.4583 26.1667 24.3437 25.8021 25.0729 25.0729C25.8021 24.3438 26.1667 23.4583 26.1667 22.4167C26.1667 21.375 25.8021 20.4896 25.0729 19.7604C24.3437 19.0313 23.4583 18.6667 22.4167 18.6667C21.375 18.6667 20.4896 19.0313 19.7604 19.7604C19.0312 20.4896 18.6667 21.375 18.6667 22.4167C18.6667 23.4583 19.0312 24.3438 19.7604 25.0729C20.4896 25.8021 21.375 26.1667 22.4167 26.1667ZM21.5833 24.9167V23.25H19.9167V21.5833H21.5833V19.9167H23.25V21.5833H24.9167V23.25H23.25V24.9167H21.5833Z" fill="white"/>
</g>
</svg>
