<svg width="125" height="124" viewBox="0 0 125 124" fill="none" xmlns="http://www.w3.org/2000/svg">
<path d="M6.98415 41.8965C6.93913 41.9304 6.72037 42.5056 6.32789 43.6222L5.78312 45.1015C5.69504 45.3521 5.62314 45.6332 5.56742 45.9448C5.78683 46.0509 5.95551 46.1247 6.07343 46.1662L7.39683 46.6065L9.02336 47.2093L10.4473 47.7346L10.766 47.8528C11.2156 48.0109 11.5143 48.1034 11.6621 48.1305C11.8112 48.154 11.9106 48.1537 11.9605 48.1298C12.0079 48.1009 12.1058 47.9636 12.2544 47.7176C12.3636 47.5366 12.4439 47.4199 12.4954 47.3676C12.5253 47.3533 12.5476 47.3487 12.5624 47.3539C12.6103 47.3707 12.6206 47.4178 12.5934 47.4952C12.5831 47.5247 12.5683 47.5609 12.549 47.6038L12.4619 47.8341C12.3922 48.0207 12.297 48.2502 12.1764 48.5225C12.0982 48.6979 12.0345 48.8556 11.9853 48.9956L11.6202 50.1405L11.5363 50.3967L11.4166 50.3485C11.3892 50.2146 11.3961 50.0535 11.4375 49.8651C11.5083 49.534 11.5193 49.3142 11.4704 49.2059C11.4191 49.0927 11.2571 48.9881 10.9844 48.8923C10.9034 48.8638 10.7915 48.8286 10.6489 48.7868L9.73483 48.4717C9.58005 48.4173 9.36337 48.3328 9.08479 48.2184L8.66303 48.0577L6.34717 47.2251L5.81127 47.0181C5.43537 46.8859 5.22133 46.8293 5.16913 46.8483C5.11823 46.8635 5.03196 47.0029 4.91031 47.2666C4.81934 47.4665 4.76435 47.5817 4.74532 47.6123C4.70199 47.6178 4.66559 47.6153 4.6361 47.6049C4.60662 47.5946 4.57226 47.5804 4.53302 47.5625C4.55544 47.4751 4.58155 47.3891 4.61134 47.3043L5.54066 44.8548L5.81328 44.0438L5.91954 43.7768L6.08051 43.3365L6.58196 41.7862L6.85324 40.9437C6.91691 40.7508 7.01636 40.409 7.15159 39.9182C7.22768 39.9491 7.29078 39.9816 7.34087 40.0158C7.35341 40.1569 7.32948 40.3368 7.26909 40.5558C7.23093 40.6997 7.21428 40.8118 7.21915 40.8922C7.24613 40.9804 7.33885 41.0523 7.49732 41.108C7.53049 41.1197 7.57167 41.1321 7.62087 41.1452C7.88641 41.2261 8.17949 41.3229 8.5001 41.4356L9.73251 41.8874L11.1349 42.368L12.1921 42.7706L12.5108 42.8888C12.9604 43.0468 13.2591 43.1394 13.4069 43.1665C13.556 43.19 13.6554 43.1897 13.7053 43.1658C13.7527 43.1369 13.8513 42.9977 14.0011 42.7481C14.1103 42.567 14.1907 42.4504 14.2422 42.3981C14.2721 42.3837 14.2944 42.3792 14.3091 42.3843C14.357 42.4012 14.3667 42.4501 14.3382 42.5312C14.3292 42.557 14.315 42.5914 14.2958 42.6343L14.2067 42.8701C14.137 43.0567 14.0425 43.2843 13.9232 43.553C13.845 43.7284 13.7813 43.8861 13.732 44.0261L13.3669 45.171L13.283 45.4272L13.1634 45.3789C13.1346 45.2487 13.1416 45.0876 13.1842 44.8956C13.2538 44.5681 13.2648 44.3484 13.2172 44.2364C13.1659 44.1232 13.0002 44.0173 12.7201 43.9189C12.639 43.8904 12.5309 43.8565 12.3956 43.8172L12.062 43.7062L10.6159 43.1731L9.86805 42.8978L6.98415 41.8965Z" fill="white"/>
<path d="M12.3645 37.9165C12.0201 37.7161 11.7381 37.4978 11.5185 37.2616C11.2975 37.02 11.087 36.71 10.8869 36.3315C10.6868 35.9529 10.5627 35.5643 10.5144 35.1657C10.4628 34.7651 10.4984 34.2728 10.6211 33.689C10.7101 33.2797 10.9078 32.8118 11.2142 32.2851C11.4205 31.9306 11.6691 31.612 11.9601 31.3293C12.253 31.0433 12.5645 30.811 12.8944 30.6324C13.2243 30.4537 13.6453 30.3281 14.1576 30.2555C14.5126 30.2045 14.8588 30.2116 15.196 30.2767C15.6386 30.3625 16.0558 30.5194 16.4475 30.7473C16.8931 31.0066 17.2373 31.2655 17.48 31.5242C17.7246 31.7796 17.9315 32.092 18.1006 32.4615C18.2312 32.7499 18.3296 33.171 18.396 33.7248C18.4426 34.0954 18.4156 34.5068 18.3152 34.959C18.2114 35.4093 18.0308 35.8556 17.7735 36.2979C17.5122 36.7469 17.2271 37.1166 16.9181 37.4068C16.6092 37.6971 16.3117 37.9172 16.0256 38.0671C15.7381 38.2117 15.3748 38.3234 14.9357 38.4024C14.4986 38.4779 14.0654 38.4767 13.6362 38.3988C13.2071 38.3208 12.7832 38.16 12.3645 37.9165ZM17.5596 36.2344C17.7246 35.9508 17.8567 35.6345 17.9558 35.2854C18.0535 34.931 18.08 34.5826 18.0352 34.2402C17.987 33.8958 17.8847 33.59 17.7284 33.3228C17.5706 33.0502 17.3313 32.7664 17.0104 32.4712C16.6895 32.1761 16.345 31.9214 15.977 31.7073C15.5178 31.4402 15.0244 31.2435 14.4968 31.1173C14.0949 31.0235 13.6918 31.0172 13.2876 31.0984C12.8799 31.1776 12.5063 31.3421 12.1666 31.5919C11.8236 31.8397 11.5421 32.1527 11.3221 32.5308C11.1433 32.8381 11.0191 33.1681 10.9495 33.5207C10.8799 33.8734 10.8694 34.1904 10.9181 34.4718C10.9634 34.7513 11.0841 35.0565 11.2802 35.3875C11.4729 35.7166 11.7186 36.0244 12.0172 36.3112C12.3159 36.5979 12.5986 36.8189 12.8653 36.9741C13.1456 37.1371 13.4875 37.2796 13.8911 37.4014C14.2947 37.5233 14.6688 37.5873 15.0132 37.5933C15.3597 37.596 15.696 37.55 16.0224 37.4551C16.3473 37.3549 16.6414 37.2029 16.9046 36.999C17.1645 36.7932 17.3828 36.5383 17.5596 36.2344Z" fill="white"/>
<path d="M18.9422 22.673C19.2037 22.8289 19.4562 23.0079 19.6998 23.2098C19.7479 23.2497 19.8113 23.3048 19.89 23.3751C19.8641 23.4247 19.8424 23.46 19.825 23.4811C19.81 23.4991 19.7858 23.5222 19.7524 23.5503C19.2958 23.3849 18.8544 23.3665 18.4281 23.495C18.0018 23.6236 17.6141 23.8984 17.2651 24.3194C17.0806 24.5419 16.9503 24.7511 16.8743 24.9468C16.7431 25.2948 16.6754 25.6395 16.6713 25.9811C16.6641 26.3203 16.7162 26.6552 16.8276 26.986C16.9359 27.3144 17.1176 27.6553 17.3725 28.0087C17.6269 28.3567 17.9226 28.6703 18.2594 28.9496C18.9029 29.4831 19.5162 29.8267 20.0992 29.9803C20.6792 30.1314 21.2003 30.1118 21.6625 29.9216C22.1217 29.7289 22.4946 29.4597 22.7813 29.1139L22.9526 28.8981C23.122 28.6326 23.2293 28.4451 23.2745 28.3354C23.3934 28.0635 23.4693 27.822 23.5023 27.6109C23.5348 27.3942 23.5289 27.1534 23.4848 26.8885C23.4431 26.6205 23.3584 26.3524 23.2307 26.0841L23.2575 26.015C23.27 26 23.2977 25.9849 23.3407 25.9698C23.4104 26.0327 23.4545 26.0743 23.473 26.0948C23.8765 26.6424 24.1478 27.0221 24.2868 27.2338C24.259 27.2919 24.2272 27.367 24.1914 27.4591C24.02 27.9107 23.6899 28.4312 23.2012 29.0205C22.8073 29.4957 22.4788 29.8246 22.2156 30.0073C21.958 30.1895 21.6456 30.3643 21.2784 30.5318C20.9107 30.6937 20.5268 30.7865 20.1268 30.81C19.7267 30.8335 19.3017 30.7677 18.8517 30.6128C18.3986 30.4554 17.9691 30.2084 17.5632 29.8718C17.1783 29.5527 16.8854 29.2235 16.6845 28.8844C16.4806 28.5429 16.3198 28.1431 16.2021 27.6853C16.0844 27.2275 16.0476 26.7732 16.0914 26.3224C16.1378 25.8687 16.2675 25.4307 16.4805 25.0086C16.6334 24.7141 16.8993 24.3383 17.2782 23.8813C17.555 23.5475 17.8606 23.2706 18.1952 23.0507C18.5267 22.8284 18.7757 22.7025 18.9422 22.673Z" fill="white"/>
<path d="M25.4922 25.9901C25.5321 25.8494 25.6619 25.6638 25.8814 25.4332C26.0623 25.2659 26.1606 25.1552 26.1763 25.1011C26.1852 25.0631 26.1843 25.0256 26.1736 24.9886C26.1254 24.8403 25.9057 24.5121 25.5144 24.0041C25.0059 23.3446 24.3366 22.4605 23.5066 21.3518C22.8758 20.5042 22.4761 19.9803 22.3077 19.78L22.2097 19.6634C21.9567 19.7995 21.5756 20.0382 21.0664 20.3795C20.9988 20.3598 20.955 20.338 20.9349 20.3141C20.9223 20.2991 20.9101 20.2634 20.8984 20.2069C20.9341 20.1463 20.9655 20.1046 20.9924 20.082C21.0163 20.0619 21.0736 20.0239 21.1644 19.968C21.3285 19.8657 21.5392 19.7065 21.7963 19.4904C21.88 19.42 22.0185 19.2933 22.2118 19.1104C22.3478 18.9808 22.4247 18.9085 22.4427 18.8934C22.4905 18.8532 22.5521 18.8141 22.6275 18.7763C22.6825 18.7811 22.7288 18.7906 22.7664 18.805L23.3092 19.0682L26.9388 20.8088L28.4552 21.5472C28.1795 20.3756 27.8879 19.373 27.5802 18.5396C27.5549 18.4792 27.5364 18.4208 27.5246 18.3643C27.5088 18.2908 27.4865 18.2127 27.4576 18.1298C27.4287 18.0469 27.3248 17.726 27.1459 17.1671C27.0739 16.9418 27.0085 16.7518 26.9498 16.597C26.7181 15.9753 26.5883 15.6175 26.5603 15.5236C26.5996 15.4549 26.6401 15.403 26.682 15.3678C26.7298 15.3276 26.7936 15.279 26.8734 15.2222C27.0484 15.0904 27.3242 14.8661 27.701 14.5494C27.9342 14.3533 28.1231 14.1895 28.2675 14.0578C28.3012 14.0857 28.3243 14.1071 28.3368 14.122C28.3544 14.143 28.3738 14.1751 28.395 14.2186C28.3421 14.3498 28.2508 14.475 28.1213 14.5941C27.8678 14.8328 27.7164 14.9957 27.6673 15.083C27.6181 15.1702 27.6007 15.2435 27.615 15.303C27.6322 15.3599 27.7314 15.5113 27.9125 15.7571L28.0904 15.9596L28.2669 16.1787C28.644 16.6272 29.2894 17.3706 30.2031 18.409L30.9377 19.2918L31.4172 19.8532C31.6032 20.0744 31.7243 20.1972 31.7804 20.2215C31.834 20.2428 31.9253 20.2299 32.0541 20.1828C32.2608 20.1009 32.5704 19.935 32.983 19.6851C33.0165 19.6825 33.0433 19.6931 33.0634 19.717C33.086 19.7439 33.1096 19.7751 33.1343 19.8105L32.928 19.984C32.7516 20.1323 32.5552 20.2872 32.3388 20.4486C32.125 20.6131 32.0106 20.7016 31.9956 20.7142C31.3827 21.2295 30.981 21.5773 30.7908 21.7577C30.6757 21.8697 30.6017 21.9396 30.5689 21.9672C30.5479 21.9848 30.5205 21.9977 30.4865 22.0058L30.4375 21.9475C30.4149 21.9206 30.3955 21.8884 30.3793 21.851C30.4428 21.7262 30.5534 21.5847 30.7113 21.4264C30.857 21.2173 30.9492 21.0478 30.9882 20.9181C30.9196 20.7819 30.7382 20.5388 30.4441 20.189L29.669 19.2943C29.5861 19.1956 29.436 19.008 29.2187 18.7313C29.0045 18.4522 28.6422 18.0091 28.1319 17.4021C27.7272 16.9207 27.4086 16.566 27.176 16.3379C27.2132 16.4853 27.3041 16.7968 27.4487 17.2723L27.5247 17.4993L27.5383 17.5337L28.1942 19.6615L28.4655 20.4669L28.7744 21.4626C28.9239 21.9136 29.0601 22.3093 29.1831 22.6499C29.2418 22.8047 29.2866 22.9278 29.3175 23.0192L29.2106 23.1014C28.0432 22.3988 26.7887 21.726 25.447 21.0831C24.1083 20.4377 23.2053 20.0282 22.7379 19.8546C22.8221 20.0033 23.1094 20.3997 23.5998 21.0438C24.1944 21.8299 24.8725 22.676 25.6341 23.582C25.8729 23.8661 26.1628 24.1684 26.5038 24.489C26.6012 24.5806 26.7087 24.6204 26.8261 24.6084C26.9411 24.5934 27.1566 24.4582 27.4726 24.2028C27.5922 24.1022 27.7133 24.0157 27.8361 23.9431C27.8947 23.9704 27.9328 23.9945 27.9504 24.0154C27.963 24.0303 27.9769 24.062 27.9921 24.1105L26.5558 25.2338C26.4541 25.3192 26.3019 25.4599 26.0992 25.6559C25.9871 25.7654 25.8202 25.9159 25.5985 26.1074L25.4922 25.9901Z" fill="white"/>
<path d="M32.3846 16.0538C32.1884 15.707 32.0551 15.3763 31.9848 15.0615C31.9159 14.7414 31.8906 14.3675 31.9089 13.9398C31.9272 13.512 32.0161 13.1139 32.1757 12.7454C32.3333 12.3735 32.6124 11.9665 33.0131 11.5244C33.2964 11.216 33.7033 10.9118 34.2336 10.6117C34.5906 10.4098 34.966 10.2602 35.3599 10.1631C35.7571 10.064 36.1432 10.0206 36.5182 10.0329C36.8932 10.0451 37.32 10.1492 37.7989 10.3451C38.1312 10.4802 38.4264 10.661 38.6847 10.8874C39.0235 11.1849 39.3045 11.5309 39.5276 11.9252C39.7815 12.374 39.9479 12.7713 40.0269 13.1171C40.1092 13.461 40.1301 13.8351 40.0896 14.2395C40.0568 14.5543 39.9293 14.9675 39.7071 15.4792C39.5603 15.8226 39.3294 16.1641 39.0144 16.5039C38.6976 16.8402 38.3164 17.1344 37.8711 17.3864C37.4189 17.6422 36.9862 17.8174 36.573 17.912C36.1598 18.0067 35.7918 18.0465 35.4692 18.0316C35.1481 18.0113 34.778 17.9244 34.3591 17.771C33.9436 17.6156 33.5702 17.396 33.2391 17.1121C32.9079 16.8282 32.6231 16.4754 32.3846 16.0538ZM37.7184 17.2236C38.004 17.0621 38.2777 16.8556 38.5394 16.6043C38.8027 16.3477 39.0013 16.0602 39.1355 15.742C39.2677 15.4204 39.3337 15.1048 39.3336 14.7952C39.3349 14.4802 39.2716 14.1144 39.1435 13.6976C39.0155 13.2809 38.8466 12.8872 38.637 12.5166C38.3754 12.0542 38.0487 11.6354 37.6569 11.2602C37.3572 10.9764 37.0124 10.7676 36.6224 10.6336C36.2306 10.4963 35.825 10.4497 35.4057 10.4939C34.9845 10.5348 34.5835 10.6629 34.2027 10.8783C33.8933 11.0533 33.6196 11.2755 33.3815 11.5449C33.1434 11.8142 32.9744 12.0826 32.8744 12.3501C32.7724 12.6142 32.7226 12.9386 32.7248 13.3234C32.7251 13.7047 32.7818 14.0945 32.8949 14.4927C33.0081 14.891 33.1406 15.2244 33.2925 15.493C33.4522 15.7752 33.6755 16.0708 33.9624 16.3797C34.2494 16.6886 34.54 16.9326 34.8343 17.1117C35.132 17.2888 35.4457 17.4188 35.7753 17.5016C36.1064 17.5791 36.437 17.5963 36.7671 17.5531C37.0953 17.5066 37.4124 17.3967 37.7184 17.2236Z" fill="white"/>
<path d="M39.5892 9.07451L39.5033 8.16174C39.4767 8.04653 39.4708 7.9695 39.4854 7.93063C39.4986 7.88811 39.5217 7.86068 39.5546 7.84832C39.6205 7.82362 39.7249 7.87412 39.8681 7.99982C39.9728 8.08987 40.0514 8.1438 40.104 8.16162C40.1552 8.17578 40.2213 8.17394 40.3022 8.15609L40.355 8.13002L40.5991 8.06345L41.9 7.5941L43.4285 7.0143L43.8783 6.84551L44.7225 6.50998C44.759 6.49626 44.8061 6.48276 44.8637 6.46949C45.1206 6.39812 45.2784 6.35145 45.3369 6.3295C45.3917 6.30891 45.4288 6.27416 45.448 6.22523C45.4534 6.20649 45.4671 6.0595 45.489 5.78426C45.4968 5.66036 45.5354 5.58538 45.6049 5.5593C45.6341 5.54832 45.6734 5.54191 45.7228 5.54008C45.7686 5.60636 45.8024 5.66876 45.8244 5.72728L45.9012 5.94877L46.0817 6.41301C46.1242 6.52639 46.2523 6.89554 46.4659 7.52048C46.481 7.56071 46.4874 7.60003 46.4852 7.63843C46.4545 7.67913 46.4246 7.70497 46.3953 7.71594C46.3661 7.72692 46.3357 7.72373 46.3041 7.70636C46.2712 7.68534 46.2115 7.60968 46.1251 7.4794C45.9284 7.1777 45.7485 6.97611 45.5852 6.87465C45.4778 6.81066 45.347 6.78463 45.193 6.79655C45.0425 6.80709 44.7077 6.9098 44.1883 7.10467C43.7714 7.26112 43.4651 7.38439 43.2695 7.4745C43.317 7.62353 43.3635 7.7584 43.4088 7.87909L44.731 11.2694C44.7817 11.4047 44.8705 11.6634 44.9972 12.0456L45.2765 12.7732L45.4233 13.1812C45.4713 13.3092 45.5276 13.3924 45.5921 13.4308C45.6565 13.4692 45.7953 13.4776 46.0083 13.4561C46.3764 13.4139 46.6205 13.3807 46.7408 13.3565C46.813 13.3377 46.8752 13.3311 46.9273 13.3366L46.989 13.5011L46.2018 13.7715C45.7725 13.9284 45.4473 14.04 45.226 14.1064L44.4395 14.4453L43.8648 14.6985C43.7003 14.7602 43.5983 14.7943 43.559 14.8007L43.4698 14.7966C43.4456 14.7098 43.4421 14.6505 43.4595 14.619C43.4755 14.5838 43.5356 14.5383 43.6398 14.4825C43.7852 14.4029 43.9518 14.2966 44.1397 14.1635C44.3262 14.0268 44.4414 13.9168 44.4853 13.8336C44.5095 13.7869 44.5145 13.7225 44.5003 13.6402C44.4729 13.4669 44.3706 13.1444 44.1936 12.6726L43.8437 11.74L43.058 9.71295L42.8714 9.28232L42.3163 7.81964C42.0763 7.8805 41.7771 7.97817 41.4187 8.11266C40.892 8.31027 40.5843 8.46327 40.4957 8.57164C40.3549 8.74129 40.2004 9.14136 40.0323 9.77186C39.9853 10.0023 39.9179 10.134 39.8301 10.1669L39.7766 10.1745C39.7537 10.158 39.7389 10.1406 39.732 10.1224C39.7156 10.0785 39.6954 9.93583 39.6716 9.69444C39.6391 9.38539 39.6116 9.17874 39.5892 9.07451Z" fill="white"/>
<path d="M47.5156 5.43122C47.5822 5.40588 47.6251 5.39128 47.6443 5.38743C47.7745 5.36126 47.9905 5.3258 48.2923 5.28107C48.4501 5.25334 48.5577 5.2337 48.6151 5.22215C48.6994 5.20521 48.8759 5.16176 49.1447 5.09178L50.1097 4.83802C50.3617 4.76346 50.6581 4.69193 50.9989 4.62341C51.6002 4.50254 52.0962 4.49248 52.487 4.59322C52.8771 4.69012 53.2044 4.90124 53.469 5.22656C53.7374 5.55112 53.9079 5.89338 53.9802 6.25337C54.1011 6.85462 53.9948 7.41588 53.6613 7.93714C53.3278 8.45841 52.8049 8.79063 52.0926 8.93383C51.8934 8.97386 51.723 8.9882 51.5812 8.97685C51.4387 8.96167 51.2698 8.91395 51.0743 8.83371C50.9916 8.79855 50.9371 8.7557 50.911 8.70517C50.921 8.67528 50.9382 8.6519 50.9627 8.63502C51.0163 8.62424 51.0741 8.62457 51.1362 8.636C51.2756 8.65578 51.4449 8.64565 51.6441 8.60562C51.9466 8.5448 52.2169 8.41277 52.455 8.20952C52.6968 8.00551 52.859 7.75178 52.9414 7.44833C53.0239 7.14488 53.0343 6.83997 52.9727 6.5336C52.9127 6.23489 52.7818 5.96038 52.5801 5.71007C52.3776 5.45593 52.1407 5.26847 51.8693 5.1477C51.7161 5.0789 51.4931 5.04005 51.2004 5.03115C50.9116 5.02147 50.6906 5.03203 50.5374 5.06283C50.0626 5.15829 49.788 5.24934 49.7138 5.33598L49.7242 5.41756L49.8777 6.06206L49.895 6.17811C49.9082 6.28305 49.9363 6.44275 49.9794 6.65721C50.1364 7.43845 50.2457 7.92251 50.3072 8.10937L50.3718 8.43106L50.9742 11.0413C50.9819 11.0796 50.9904 11.1516 50.9997 11.2573C51.0129 11.3622 51.0271 11.453 51.0425 11.5296C51.0795 11.7134 51.1229 11.8501 51.1728 11.9397C51.2701 11.948 51.5509 11.9573 52.0151 11.9676C52.2319 11.9758 52.3507 11.9818 52.3714 11.9856C52.4043 11.9909 52.4361 12.0104 52.4668 12.0441C52.463 12.1046 52.4493 12.1453 52.4255 12.166C52.4064 12.1897 52.3605 12.2089 52.2877 12.2236C52.2417 12.2328 52.1326 12.2448 51.9602 12.2595C51.624 12.2912 51.362 12.326 51.1743 12.3637L50.1714 12.6072L49.5648 12.7112C49.5265 12.7189 49.4162 12.745 49.2339 12.7896L49.1981 12.6414L49.916 12.3477C50.0317 12.2886 50.0994 12.2391 50.1193 12.1993C50.1468 12.138 50.1448 12.0288 50.1132 11.8718C50.1063 11.8373 50.0932 11.7622 50.0739 11.6466C50.0616 11.5654 50.0412 11.4539 50.0127 11.3123C49.9219 10.8604 49.7091 9.90105 49.3744 8.43434C49.2205 7.74808 49.072 7.0488 48.9288 6.33649L48.9091 6.23883C48.8537 5.9631 48.7766 5.79732 48.6777 5.74149C48.5106 5.6436 48.1356 5.61141 47.5526 5.64492C47.525 5.60665 47.5085 5.57411 47.5031 5.5473C47.4969 5.51666 47.5011 5.47797 47.5156 5.43122Z" fill="white"/>
<path d="M58.391 11.0562C58.4292 11.0201 58.4619 10.9979 58.4891 10.9894C58.555 10.9683 58.6679 10.95 58.8277 10.9345C59.206 10.9021 59.4394 10.8615 59.5281 10.8125C59.581 10.7331 59.6057 10.6231 59.6024 10.4825L59.5869 10.0726L59.5576 8.58461L59.5293 7.88195L59.5004 6.41152L59.4317 4.74276C59.4183 4.34452 59.3877 4.12058 59.3396 4.07092C59.2676 3.99838 59.0576 3.96036 58.7098 3.95685C58.5613 3.95645 58.4302 3.94783 58.3165 3.93098C58.2651 3.90484 58.2389 3.87029 58.2378 3.82734C58.2371 3.79609 58.246 3.75876 58.2645 3.71535C58.2992 3.69499 58.3302 3.68449 58.3575 3.68384C58.4122 3.68255 58.4786 3.68294 58.5568 3.685C58.7877 3.69908 59.0261 3.70322 59.2722 3.6974L59.7054 3.67545L60.7369 3.67453C61.2524 3.66235 61.6545 3.64699 61.9432 3.62845C62.2319 3.60991 62.427 3.59944 62.5285 3.59704C62.6183 3.59492 62.8411 3.59747 63.1969 3.6047L64.0285 3.57919L64.1285 3.59441L64.6143 3.56536L64.6736 3.59326C64.6938 3.62404 64.7083 3.65691 64.7169 3.69187C64.7182 3.74655 64.7104 3.83074 64.6936 3.94445C64.6806 4.05807 64.6745 4.12855 64.6751 4.15588C64.6847 4.56202 64.7065 4.90535 64.7405 5.18588C64.7371 5.2094 64.7258 5.2253 64.7064 5.23357C64.6635 5.23458 64.6243 5.22965 64.5889 5.21876C64.5442 5.14558 64.4825 5.01614 64.4039 4.83044C64.3292 4.64466 64.2166 4.43046 64.0663 4.18785C63.9648 4.02613 63.8864 3.9303 63.831 3.90035C63.7756 3.8704 63.6619 3.85746 63.4901 3.86152C63.455 3.86235 63.2772 3.86264 62.9568 3.86239C62.8708 3.86052 62.7868 3.86055 62.7048 3.86249L61.0361 3.93707L60.8897 3.94053C60.6749 3.9456 60.5467 3.97598 60.505 4.03167C60.4408 4.12696 60.4142 4.40306 60.4249 4.85996C60.426 4.90682 60.4469 5.37521 60.4874 6.26513L60.5067 7.07935C60.5499 7.09005 60.5969 7.0948 60.6477 7.0936L60.7473 7.09125C60.8136 7.08968 60.9113 7.08933 61.0403 7.09019C61.2435 7.09321 61.3803 7.09388 61.4506 7.09222C61.4975 7.09111 61.5384 7.08819 61.5735 7.08346C61.9949 7.05787 62.5375 7.03724 63.2014 7.02156C63.4075 6.98153 63.5276 6.93766 63.5616 6.88997C63.6186 6.81829 63.6572 6.63374 63.6775 6.3363C63.7017 6.03877 63.7642 5.86928 63.8648 5.82783C63.9155 5.82663 63.9626 5.83528 64.0061 5.8538C64.0146 5.88485 64.0192 5.91405 64.0198 5.94139C64.0205 5.96872 64.0176 6.01372 64.0113 6.07639C63.9952 6.22134 63.9961 6.67457 64.0141 7.43608C64.0189 7.63915 64.034 7.86541 64.0595 8.11488C64.0888 8.36426 64.1037 8.49871 64.1042 8.51824C64.105 8.55338 64.1002 8.60038 64.0899 8.65924C64.059 8.6756 64.0338 8.68401 64.0143 8.68447L63.9733 8.68544C63.9082 8.57757 63.8437 8.40912 63.7797 8.1801C63.6688 7.78808 63.5556 7.54459 63.4401 7.44964C63.3283 7.35069 63.1475 7.30416 62.8976 7.31007C62.8429 7.31136 62.7434 7.31761 62.5991 7.32884C62.4547 7.33616 62.2399 7.34318 61.9549 7.34992L61.5741 7.35891C61.0313 7.37173 60.6762 7.39184 60.5088 7.41924L60.5075 7.61268L60.5389 8.69037L60.5491 9.37001L60.5706 10.0318C60.5839 10.43 60.6147 10.6598 60.663 10.7212C60.7314 10.8056 60.877 10.8451 61.0995 10.8398L61.4567 10.8255C61.488 10.8248 61.6091 10.8258 61.8202 10.8287C62.0351 10.8275 62.2987 10.8232 62.6111 10.8159C63.3648 10.7981 63.8659 10.755 64.1143 10.6866C64.3627 10.6143 64.565 10.4942 64.7212 10.3264C64.8814 10.1585 65.0781 9.80028 65.3113 9.25166C65.3817 9.08979 65.454 9.00798 65.5282 9.00623C65.5633 9.0054 65.6028 9.0201 65.6464 9.05033C65.5423 9.43961 65.4839 9.69497 65.4711 9.8164C65.4346 10.0908 65.4158 10.3706 65.4148 10.6559C65.4178 10.7847 65.3891 10.8929 65.3287 10.9802L65.1998 10.9833L63.5542 11.0397L62.816 11.0513L61.0592 11.1163L60.3445 11.1331C60.2547 11.1353 60.1708 11.1392 60.0928 11.1449C59.3906 11.1928 58.8735 11.2206 58.5416 11.2285C58.483 11.2299 58.4418 11.2211 58.4179 11.2021C58.3979 11.183 58.3875 11.154 58.3865 11.1149L58.391 11.0562Z" fill="white"/>
<path d="M68.2077 4.64485L68.5625 3.79949C68.5934 3.68539 68.6245 3.61465 68.6557 3.58728C68.6875 3.55603 68.7208 3.54273 68.7556 3.54737C68.8253 3.55664 68.8936 3.65045 68.9605 3.8288C69.0104 3.95759 69.0543 4.04225 69.0922 4.08276C69.1307 4.1194 69.1898 4.14894 69.2696 4.17138L69.3285 4.1733L69.5751 4.22975L70.9435 4.42953L72.5648 4.63929L73.0411 4.70265L73.9437 4.80499C73.9824 4.81014 74.0303 4.82045 74.0873 4.83592C74.3475 4.89418 74.5086 4.92744 74.5706 4.93568C74.6287 4.9434 74.6777 4.93022 74.7177 4.89614C74.7314 4.8822 74.8128 4.75904 74.9619 4.52668C75.0272 4.42108 75.0966 4.37318 75.1702 4.38297C75.2012 4.38709 75.2389 4.39998 75.2833 4.42165C75.2923 4.50167 75.2927 4.57266 75.2845 4.63461L75.2478 4.86617L75.1879 5.36064C75.1719 5.48067 75.1107 5.8666 75.0043 6.51841C74.9987 6.56101 74.9858 6.5987 74.9656 6.63149C74.9194 6.65293 74.8808 6.66159 74.8499 6.65747C74.8189 6.65334 74.7936 6.63619 74.774 6.60599C74.7549 6.57192 74.7379 6.47706 74.7232 6.32141C74.6921 5.96262 74.6285 5.69999 74.5324 5.53352C74.4679 5.42642 74.3648 5.34178 74.2234 5.27961C74.0858 5.21796 73.742 5.15056 73.1922 5.07741C72.7508 5.01869 72.4225 4.98291 72.2075 4.97007C72.1792 5.12392 72.1565 5.26474 72.1395 5.39252L71.7061 9.0056C71.6871 9.14887 71.6433 9.41889 71.5747 9.81566L71.4778 10.5889L71.4148 11.018C71.3968 11.1535 71.4071 11.2534 71.4459 11.3176C71.4846 11.3819 71.603 11.4548 71.801 11.5363C72.1454 11.6727 72.3763 11.7586 72.4938 11.794C72.5663 11.8115 72.6242 11.835 72.6676 11.8644L72.6444 12.0386L71.8228 11.9057C71.3702 11.8415 71.0308 11.7865 70.8044 11.7406L69.951 11.6685L69.3249 11.6207C69.1506 11.5975 69.0447 11.5795 69.007 11.5666L68.9303 11.5209C68.9499 11.4329 68.9748 11.379 69.005 11.3594C69.0357 11.3359 69.1101 11.3241 69.2284 11.3241C69.3941 11.3225 69.5912 11.3073 69.8196 11.2786C70.0486 11.246 70.202 11.2034 70.2799 11.1507C70.3233 11.121 70.3581 11.0665 70.3844 10.9873C70.442 10.8215 70.5039 10.4889 70.5704 9.98942L70.7017 9.00202L70.9652 6.84409L71.0037 6.37634L71.2042 4.82478C70.9639 4.76522 70.654 4.7102 70.2745 4.65972C69.7169 4.58555 69.3735 4.57532 69.2442 4.62905C69.04 4.71223 68.7151 4.99214 68.2695 5.46879C68.1193 5.64978 67.9977 5.7341 67.9048 5.72174L67.8541 5.70317C67.8417 5.67787 67.8368 5.65555 67.8393 5.63619C67.8455 5.58972 67.895 5.45445 67.9879 5.23036C68.105 4.94251 68.1783 4.74734 68.2077 4.64485Z" fill="white"/>
<path d="M80.3756 6.16728L80.2676 6.34943L79.5242 6.30378C79.301 6.28762 79.1494 6.29838 79.0693 6.33607C78.9891 6.37376 78.9119 6.47129 78.8376 6.62866C78.767 6.78713 78.6624 7.10451 78.5237 7.58082C78.4712 7.76084 78.3888 8.09282 78.2763 8.57677L78.2419 8.69491L78.1876 8.92322C78.5506 8.97604 79.0546 9.09639 79.6997 9.28426C80.7536 9.59119 81.4073 9.98703 81.6607 10.4718C81.9142 10.9565 81.9579 11.4839 81.7919 12.054C81.6171 12.6541 81.2029 13.0847 80.5491 13.3459C79.8953 13.6071 79.1464 13.6148 78.3026 13.369L77.4644 13.1249L77.2023 13.0608C76.929 12.9934 76.6892 12.9297 76.4829 12.8696L75.287 12.5335C75.1407 12.4909 75.0149 12.4481 74.9094 12.4052C74.9122 12.3816 74.9163 12.3604 74.9218 12.3417C74.9447 12.2629 75.012 12.2276 75.1235 12.2357C75.6282 12.2769 75.9185 12.2861 75.9943 12.2635C76.0738 12.2419 76.1512 12.1505 76.2266 11.9894C76.3021 11.8283 76.4124 11.4983 76.5577 10.9995L76.7325 10.3364L77.43 7.87867L77.7253 6.78074L77.8145 6.49547C77.8888 6.24044 77.9138 6.07074 77.8895 5.98638C77.869 5.90311 77.7621 5.82315 77.5688 5.7465C77.2839 5.63505 77.0136 5.50141 76.7579 5.34557C76.741 5.29183 76.7408 5.23683 76.7572 5.18057L76.9895 5.24212L77.3439 5.34534L77.6444 5.44507L78.6915 5.76833C79.1678 5.90705 79.7292 6.04003 80.3756 6.16728ZM78.0781 9.25748L77.9004 9.84653C77.4995 11.2229 77.2936 11.9929 77.2826 12.1565C77.2753 12.3212 77.3415 12.485 77.4813 12.6477C77.621 12.8105 77.8934 12.9508 78.2985 13.0688C78.906 13.2457 79.4361 13.2069 79.8887 12.9522C80.3423 12.6937 80.6358 12.3357 80.769 11.8781C80.9285 11.3306 80.8687 10.8514 80.5896 10.4406C80.3106 10.0297 79.8729 9.73747 79.2766 9.5638C78.6502 9.38139 78.2507 9.27928 78.0781 9.25748Z" fill="white"/>
<path d="M91.5555 11.0605L91.6509 10.9059C91.7156 10.9274 91.7656 10.9468 91.8009 10.964L92.2851 11.2282C92.6946 11.4348 93.1466 11.6768 93.641 11.9542C93.8379 12.0665 94.1442 12.2508 94.5598 12.5071C95.125 12.8557 95.5133 13.1525 95.7247 13.3977C96.0312 13.7565 96.2006 14.118 96.233 14.4822C96.2708 14.8451 96.1964 15.1778 96.0098 15.4804C95.7063 15.9724 95.1002 16.1701 94.1916 16.0732L94.1421 16.0977C94.4417 16.4156 94.6529 16.7317 94.7757 17.0461C94.8984 17.3605 94.9444 17.6803 94.9137 18.0055C94.8907 18.2437 94.7879 18.5108 94.6054 18.8067C94.2999 19.3021 93.8011 19.6048 93.109 19.715C92.4223 19.8238 91.6833 19.6343 90.892 19.1462L90.1489 18.6879L89.3805 18.2484C88.7114 17.845 88.3204 17.6084 88.2073 17.5387C88.091 17.4669 87.9793 17.3912 87.8724 17.3115L87.9063 17.2566C87.9309 17.2167 87.9566 17.1936 87.9835 17.1872C88.0157 17.1796 88.0642 17.1866 88.129 17.2081C88.5979 17.378 88.8681 17.4644 88.9398 17.4672C89.0168 17.4689 89.0868 17.4409 89.1499 17.3834C89.2718 17.275 89.5029 16.9448 89.8433 16.3929C89.8741 16.3431 89.9114 16.2789 89.9552 16.2003C90.0859 15.9735 90.1616 15.8434 90.1821 15.8102L90.5019 15.2915C91.0433 14.4138 91.5059 13.6413 91.8899 12.974L92.5032 11.9685L92.5751 11.8407C92.3171 11.6265 92.0831 11.4478 91.8731 11.3045C91.7355 11.2151 91.6297 11.1337 91.5555 11.0605ZM91.9791 14.8051C92.1249 14.9408 92.2892 15.0651 92.472 15.1779C93.1902 15.6208 93.7747 15.7633 94.2255 15.6053C94.6763 15.4473 94.998 15.2121 95.1908 14.8996C95.2769 14.7599 95.3408 14.6043 95.3824 14.4326C95.4294 14.2596 95.4306 14.0791 95.386 13.891C95.3447 13.7049 95.2567 13.5313 95.122 13.3702C94.8922 13.0954 94.6261 12.8647 94.3235 12.6781C94.0409 12.5038 93.7588 12.3734 93.4771 12.2869C93.4307 12.3546 93.3973 12.4051 93.3768 12.4384C93.3563 12.4716 93.3011 12.5685 93.2114 12.7288C93.1532 12.8306 93.0934 12.9314 93.0319 13.0311L92.6447 13.6253L92.4283 13.9875L92.0295 14.7122L91.9791 14.8051ZM91.0596 18.9192C91.4031 19.0989 91.7221 19.1993 92.0166 19.2203C92.1525 19.2306 92.3323 19.2107 92.556 19.1605C92.7851 19.1091 92.9974 19.0105 93.1928 18.8648C93.3915 18.7212 93.5462 18.5596 93.6569 18.3801C93.741 18.2437 93.8163 18.0584 93.8828 17.8241C93.9526 17.5918 93.9672 17.3598 93.9265 17.1282C93.8911 16.8953 93.7735 16.6506 93.5737 16.3943C93.3758 16.1346 93.1207 15.9084 92.8081 15.7156C92.203 15.3424 91.8567 15.1449 91.7692 15.1231C91.7187 15.1975 91.6822 15.253 91.6597 15.2896L91.5508 15.4772L91.3152 15.8481L91.0537 16.272C90.5818 17.0595 90.3151 17.5329 90.2535 17.6923C90.192 17.8517 90.2059 18.0301 90.2952 18.2275C90.3879 18.4269 90.6427 18.6575 91.0596 18.9192Z" fill="white"/>
<path d="M104.635 21.5259C104.808 21.3139 104.893 21.183 104.89 21.1334C104.892 21.0834 104.801 20.9546 104.614 20.7468L104.494 20.6003C104.443 20.5451 104.403 20.4962 104.373 20.4537C104.395 20.3999 104.432 20.3438 104.484 20.2854C104.596 20.3592 104.667 20.409 104.696 20.435L105.242 20.976C105.307 21.0442 105.495 21.2172 105.807 21.4951C105.936 21.6094 106.214 21.8312 106.643 22.1605C106.585 22.2191 106.531 22.2652 106.481 22.2985C106.368 22.2663 106.211 22.1759 106.008 22.0271C105.847 21.9093 105.733 21.8523 105.666 21.8561C105.6 21.8599 105.488 21.9508 105.329 22.1288L105.151 22.3384L104.427 23.1607L104.055 23.5599L103.382 24.3253L102.711 25.0615L102.151 25.7165C101.569 26.3701 101.277 26.7343 101.273 26.8092C101.269 26.8842 101.353 27.0301 101.526 27.2469C101.692 27.4835 101.787 27.6329 101.81 27.6952C101.833 27.7575 101.821 27.815 101.774 27.8675C101.764 27.8791 101.742 27.8915 101.71 27.9044C101.695 27.8969 101.687 27.8919 101.684 27.8893C101.669 27.8763 101.653 27.8565 101.635 27.8299C101.369 27.4884 101.065 27.1658 100.724 26.8619C100.333 26.5138 99.8611 26.1594 99.309 25.7986C99.3369 25.7554 99.36 25.7237 99.3781 25.7032C99.3937 25.6857 99.42 25.6621 99.457 25.6323C99.577 25.6502 99.7525 25.741 99.9833 25.9047C100.295 26.13 100.549 26.1333 100.743 25.9145L101.301 25.2886L101.449 25.1306L101.625 24.9502L104.355 21.8575L101.012 22.2467C100.721 22.2913 100.363 22.3356 99.9363 22.3797C99.5019 22.4271 99.0302 22.4988 98.5212 22.5947L97.7488 22.7309C97.567 22.9351 97.4514 23.0884 97.402 23.1909C97.3552 23.2905 97.3401 23.3633 97.3566 23.4094C97.376 23.458 97.453 23.5684 97.5875 23.7404C97.7563 23.9796 97.8508 24.1291 97.8708 24.1888C97.8938 24.2511 97.8819 24.3085 97.8352 24.361C97.8248 24.3727 97.8048 24.3863 97.7753 24.4019C97.761 24.3944 97.751 24.388 97.7452 24.3829C97.7335 24.3725 97.7186 24.354 97.7004 24.3273C97.4344 23.9859 97.1292 23.6619 96.7849 23.3554C96.3939 23.0074 95.9224 22.6529 95.3702 22.2921C95.401 22.2516 95.4256 22.2211 95.4437 22.2007C95.4593 22.1832 95.4842 22.1582 95.5182 22.1258C95.6412 22.1463 95.8166 22.2371 96.0445 22.3982C96.3594 22.6262 96.6142 22.6307 96.809 22.4119L97.3617 21.7822L97.5146 21.6281L97.6865 21.4438L98.0752 20.9896L98.5344 20.4649L99.8669 18.9682C100.293 18.4897 100.575 18.1704 100.712 18.0102C100.849 17.8501 100.925 17.7447 100.938 17.6941C100.955 17.6461 100.958 17.6072 100.948 17.5773C100.941 17.5501 100.852 17.4391 100.68 17.2443L100.559 17.0977C100.509 17.0425 100.469 16.9937 100.439 16.9512C100.46 16.8973 100.497 16.8412 100.549 16.7829C100.659 16.854 100.728 16.9026 100.757 16.9285L101.303 17.4696C101.368 17.5377 101.556 17.7108 101.869 17.9887C101.997 18.103 102.275 18.3248 102.704 18.654C102.649 18.7153 102.597 18.7626 102.546 18.796C102.431 18.7612 102.273 18.6707 102.074 18.5246C101.903 18.3989 101.787 18.3421 101.724 18.354C101.663 18.3631 101.554 18.4538 101.395 18.6263L101.216 18.8359L100.492 19.6581L100.121 20.0574L99.4431 20.8189L98.7764 21.5589L98.0488 22.3939L99.7234 22.1431L100.952 21.9971L102.572 21.8075C103.3 21.7237 103.988 21.6299 104.635 21.5259Z" fill="white"/>
<path d="M106.884 34.0328C106.926 34.1632 106.964 34.2597 106.998 34.3223C107.061 34.4468 107.074 34.5333 107.038 34.5817C107.004 34.6277 106.861 34.7549 106.607 34.9633C106.303 35.2656 106.032 35.5872 105.792 35.9281C105.739 35.9105 105.704 35.8909 105.687 35.8693C105.636 35.8047 105.653 35.6926 105.736 35.5331C106.019 34.9944 106.175 34.5974 106.203 34.3421C106.231 34.0868 106.161 33.8096 105.991 33.5107C105.822 33.2117 105.243 32.43 104.253 31.1656L103.666 30.4344L103.416 30.095C103.117 29.7385 102.884 29.5139 102.717 29.4212C102.55 29.3339 102.372 29.2774 102.183 29.2516C101.994 29.2312 101.603 29.2935 101.012 29.4384C100.841 29.4786 100.73 29.468 100.682 29.4065C100.663 29.3818 100.651 29.3415 100.647 29.2853C101.161 29.0865 101.586 28.8629 101.923 28.6146C102.094 28.4907 102.211 28.4188 102.275 28.3988C102.341 28.3818 102.394 28.3994 102.435 28.4517L102.468 28.4933C102.489 28.5264 102.512 28.5599 102.539 28.5938C102.707 28.8091 102.866 28.9329 103.015 28.965C103.164 28.9971 103.43 28.9628 103.813 28.862C104.197 28.7643 104.858 28.557 105.796 28.2401L106.173 28.1234L107.403 27.7268L109.649 27.0034C110.02 26.8872 110.361 26.7689 110.673 26.6484L110.827 26.8258C110.846 26.8504 110.874 26.8885 110.909 26.9402C110.767 27.2345 110.346 27.9484 109.646 29.0816L107.689 32.2195C107.451 32.5744 107.259 32.8737 107.112 33.1174C106.971 33.3617 106.885 33.521 106.854 33.595C106.825 33.6722 106.835 33.8181 106.884 34.0328ZM106.093 32.9178C106.16 32.8899 106.211 32.8627 106.245 32.8362C106.331 32.7688 106.484 32.5496 106.705 32.1786L107.222 31.3652C108.033 30.1007 108.641 29.0994 109.045 28.3613C109.128 28.2073 109.244 28.0072 109.394 27.7611C109.522 27.5569 109.588 27.4454 109.593 27.4265C108.926 27.5566 108.09 27.812 107.083 28.1928L106.72 28.3279L104.245 29.2153C104.082 29.2788 103.975 29.3174 103.926 29.3309C103.707 29.3932 103.569 29.4472 103.51 29.4929C103.464 29.529 103.464 29.5763 103.509 29.6347L103.656 29.8029C103.678 29.8306 103.708 29.8788 103.747 29.9475C103.791 30.017 103.93 30.2009 104.164 30.4993L105.153 31.793L105.771 32.5447L106.093 32.9178Z" fill="white"/>
<path d="M108.042 36.3214C108.091 36.3394 108.126 36.3586 108.145 36.3791C108.194 36.4285 108.261 36.5212 108.346 36.657C108.545 36.9805 108.686 37.1709 108.77 37.2281C108.865 37.2397 108.974 37.2125 109.098 37.1464L109.457 36.9485L110.774 36.2543L111.389 35.9136L112.69 35.2277L114.15 34.4172C114.5 34.2266 114.687 34.0986 114.709 34.0334C114.742 33.9364 114.682 33.7318 114.529 33.4194C114.462 33.2865 114.411 33.1655 114.375 33.0563C114.375 32.9986 114.395 32.9597 114.433 32.9395C114.46 32.9248 114.497 32.916 114.545 32.9131C114.578 32.9349 114.602 32.9579 114.614 32.9821C114.64 33.0303 114.67 33.0899 114.703 33.1607C114.794 33.3733 114.897 33.5882 115.013 33.8055L115.227 34.1827L115.691 35.104C115.933 35.5592 116.127 35.9116 116.274 36.1613C116.42 36.4109 116.517 36.5806 116.564 36.6702C116.607 36.7495 116.704 36.9497 116.858 37.2709L117.254 38.0026L117.285 38.0988L117.529 38.5198L117.531 38.5853C117.512 38.6172 117.489 38.6449 117.462 38.6683C117.414 38.694 117.335 38.7248 117.226 38.7608C117.118 38.8003 117.053 38.8264 117.029 38.8393C116.67 39.0301 116.373 39.2037 116.138 39.36C116.115 39.3676 116.096 39.3646 116.08 39.351C116.059 39.3131 116.046 39.2758 116.04 39.2393C116.085 39.1665 116.173 39.0533 116.304 38.8997C116.437 38.7495 116.577 38.5528 116.727 38.3096C116.826 38.1463 116.876 38.0332 116.878 37.9702C116.88 37.9073 116.84 37.7999 116.76 37.6482C116.743 37.6172 116.663 37.4584 116.52 37.172C116.483 37.0943 116.445 37.0193 116.406 36.9469L115.591 35.4893L115.522 35.36C115.421 35.1703 115.336 35.0694 115.268 35.0572C115.154 35.0426 114.895 35.1427 114.492 35.3574C114.45 35.3794 114.041 35.6083 113.264 36.044L112.545 36.4267C112.555 36.4702 112.572 36.5143 112.596 36.5591L112.642 36.6471C112.674 36.7057 112.718 36.7928 112.775 36.9084C112.863 37.0914 112.924 37.2139 112.957 37.276C112.979 37.3174 113 37.3527 113.02 37.3819C113.232 37.7469 113.494 38.2225 113.806 38.8087C113.935 38.975 114.028 39.0626 114.086 39.0716C114.175 39.0903 114.357 39.0419 114.632 38.9266C114.909 38.8147 115.089 38.7944 115.171 38.8657C115.195 38.9105 115.208 38.9565 115.211 39.0036C115.187 39.0252 115.163 39.0424 115.139 39.0552C115.115 39.0681 115.073 39.0857 115.014 39.1082C114.878 39.1589 114.473 39.3632 113.801 39.7211C113.621 39.8165 113.426 39.9316 113.215 40.0663C113.005 40.2045 112.891 40.2781 112.874 40.2873C112.843 40.3038 112.799 40.3207 112.742 40.3379C112.713 40.3176 112.694 40.2989 112.685 40.2816L112.666 40.2454C112.733 40.1389 112.855 40.0056 113.031 39.8456C113.331 39.5705 113.498 39.3601 113.531 39.2142C113.569 39.0699 113.53 38.8874 113.412 38.6668C113.386 38.6185 113.336 38.5324 113.261 38.4085C113.19 38.2827 113.087 38.094 112.953 37.8423L112.774 37.5061C112.519 37.0268 112.342 36.7185 112.242 36.5812L112.069 36.6669L111.12 37.1787L110.517 37.4929L109.935 37.8092C109.586 37.9998 109.394 38.1305 109.361 38.2013C109.316 38.3003 109.346 38.448 109.451 38.6446L109.624 38.9573C109.639 38.9849 109.692 39.0937 109.784 39.2835C109.882 39.475 110.004 39.7087 110.151 39.9845C110.505 40.65 110.769 41.0785 110.941 41.2698C111.117 41.4592 111.315 41.5861 111.535 41.6504C111.757 41.7182 112.166 41.7331 112.761 41.6952C112.937 41.6854 113.042 41.7133 113.077 41.7788C113.094 41.8099 113.098 41.8517 113.091 41.9043C112.696 41.986 112.442 42.0484 112.328 42.0915C112.066 42.1821 111.808 42.2909 111.552 42.418C111.439 42.4786 111.329 42.5015 111.224 42.4867L111.163 42.3729L110.374 40.9277L110.032 40.2733L109.186 38.7326L108.85 38.1016C108.808 38.0223 108.766 37.9491 108.726 37.8819C108.368 37.276 108.111 36.8264 107.955 36.5333C107.928 36.4816 107.917 36.4408 107.923 36.4109C107.931 36.3845 107.953 36.3621 107.987 36.3438L108.042 36.3214Z" fill="white"/>
<path d="M115.61 43.4865C115.988 43.3615 116.338 43.2951 116.661 43.2874C116.988 43.282 117.36 43.33 117.776 43.4311C118.192 43.5323 118.565 43.6969 118.895 43.9251C119.23 44.152 119.575 44.505 119.93 44.984C120.178 45.3219 120.397 45.7801 120.588 46.3587C120.717 46.7482 120.791 47.1455 120.809 47.5507C120.829 47.9597 120.797 48.3468 120.712 48.7122C120.627 49.0777 120.442 49.4762 120.156 49.9077C119.959 50.2074 119.724 50.4619 119.452 50.6711C119.094 50.9457 118.7 51.154 118.27 51.2961C117.781 51.4579 117.358 51.5439 117.004 51.5541C116.651 51.568 116.28 51.5157 115.891 51.3973C115.588 51.3039 115.208 51.0984 114.749 50.781C114.441 50.5702 114.151 50.2773 113.879 49.9023C113.61 49.526 113.396 49.095 113.235 48.6091C113.072 48.1158 112.985 47.6573 112.972 47.2336C112.96 46.8098 112.992 46.4412 113.07 46.1276C113.152 45.8166 113.309 45.4705 113.541 45.0894C113.774 44.712 114.063 44.3885 114.405 44.1189C114.748 43.8493 115.15 43.6385 115.61 43.4865ZM113.425 48.491C113.528 48.8026 113.677 49.1112 113.873 49.4168C114.073 49.7249 114.316 49.9757 114.602 50.1692C114.892 50.3614 115.189 50.4876 115.493 50.5476C115.801 50.6102 116.173 50.6192 116.606 50.5747C117.04 50.5301 117.459 50.4411 117.863 50.3075C118.368 50.1408 118.842 49.9018 119.286 49.5905C119.623 49.3517 119.895 49.0541 120.102 48.6977C120.313 48.34 120.438 47.9512 120.476 47.5313C120.518 47.1102 120.47 46.6919 120.333 46.2765C120.221 45.939 120.056 45.6273 119.839 45.3414C119.621 45.0554 119.39 44.8374 119.147 44.6873C118.908 44.536 118.6 44.424 118.222 44.3513C117.848 44.2775 117.454 44.2573 117.042 44.2908C116.629 44.3243 116.276 44.3894 115.983 44.4862C115.675 44.588 115.342 44.7495 114.983 44.9709C114.624 45.1923 114.328 45.4299 114.096 45.6838C113.864 45.9413 113.675 46.2237 113.53 46.5309C113.39 46.8406 113.308 47.1616 113.287 47.4938C113.268 47.8248 113.314 48.1572 113.425 48.491Z" fill="white"/>
<path d="M118.016 81.1838C118.061 81.1499 118.28 80.5747 118.672 79.4581L119.217 77.9789C119.305 77.7283 119.377 77.4471 119.433 77.1355C119.213 77.0294 119.044 76.9556 118.927 76.9141L117.603 76.4738L115.977 75.8711L114.553 75.3457L114.234 75.2275C113.784 75.0695 113.486 74.9769 113.338 74.9498C113.189 74.9264 113.089 74.9266 113.04 74.9505C112.992 74.9794 112.894 75.1168 112.746 75.3627C112.636 75.5437 112.556 75.6604 112.505 75.7127C112.475 75.727 112.452 75.7316 112.438 75.7264C112.39 75.7096 112.379 75.6625 112.407 75.5851C112.417 75.5556 112.432 75.5194 112.451 75.4765L112.538 75.2463C112.608 75.0596 112.703 74.8301 112.824 74.5578C112.902 74.3824 112.965 74.2247 113.015 74.0847L113.38 72.9398L113.464 72.6836L113.583 72.7319C113.611 72.8657 113.604 73.0268 113.563 73.2152C113.492 73.5464 113.481 73.7661 113.53 73.8744C113.581 73.9876 113.743 74.0922 114.016 74.188C114.097 74.2165 114.208 74.2517 114.351 74.2936L115.265 74.6086C115.42 74.663 115.637 74.7475 115.915 74.862L116.337 75.0226L118.653 75.8553L119.189 76.0623C119.565 76.1944 119.779 76.251 119.831 76.2321C119.882 76.2168 119.968 76.0774 120.09 75.8138C120.181 75.6139 120.236 75.4986 120.255 75.468C120.298 75.4626 120.334 75.465 120.364 75.4754C120.393 75.4857 120.428 75.4999 120.467 75.5178C120.445 75.6052 120.418 75.6912 120.389 75.776L119.459 78.2256L119.187 79.0365L119.08 79.3035L118.919 79.7438L118.418 81.2941L118.147 82.1366C118.083 82.3295 117.984 82.6714 117.848 83.1621C117.772 83.1312 117.709 83.0987 117.659 83.0645C117.647 82.9235 117.671 82.7435 117.731 82.5246C117.769 82.3806 117.786 82.2685 117.781 82.1881C117.754 82.0999 117.661 82.028 117.503 81.9723C117.47 81.9607 117.428 81.9483 117.379 81.9351C117.114 81.8542 116.821 81.7574 116.5 81.6447L115.267 81.1929L113.865 80.7124L112.808 80.3097L112.489 80.1915C112.04 80.0335 111.741 79.9409 111.593 79.9138C111.444 79.8904 111.345 79.8906 111.295 79.9145C111.247 79.9434 111.149 80.0826 110.999 80.3322C110.89 80.5133 110.809 80.63 110.758 80.6822C110.728 80.6966 110.706 80.7012 110.691 80.696C110.643 80.6791 110.633 80.6302 110.662 80.5491C110.671 80.5233 110.685 80.489 110.704 80.446L110.793 80.2103C110.863 80.0236 110.958 79.796 111.077 79.5274C111.155 79.352 111.219 79.1942 111.268 79.0542L111.633 77.9093L111.717 77.6531L111.837 77.7014C111.865 77.8316 111.858 77.9927 111.816 78.1847C111.746 78.5122 111.735 78.7319 111.783 78.8439C111.834 78.9572 112 79.063 112.28 79.1615C112.361 79.19 112.469 79.2238 112.604 79.2631L112.938 79.3741L114.384 79.9073L115.132 80.1826L118.016 81.1838Z" fill="white"/>
<path d="M112.636 85.1639C112.98 85.3642 113.262 85.5825 113.481 85.8187C113.702 86.0603 113.913 86.3703 114.113 86.7489C114.313 87.1274 114.437 87.516 114.486 87.9146C114.537 88.3152 114.502 88.8075 114.379 89.3914C114.29 89.8006 114.092 90.2685 113.786 90.7953C113.579 91.1498 113.331 91.4683 113.04 91.751C112.747 92.037 112.436 92.2693 112.106 92.448C111.776 92.6266 111.355 92.7522 110.842 92.8248C110.487 92.8758 110.141 92.8687 109.804 92.8036C109.361 92.7178 108.944 92.5609 108.553 92.3331C108.107 92.0738 107.763 91.8148 107.52 91.5561C107.275 91.3008 107.068 90.9883 106.899 90.6188C106.769 90.3304 106.67 89.9093 106.604 89.3555C106.557 88.985 106.584 88.5736 106.685 88.1213C106.789 87.671 106.969 87.2247 107.227 86.7824C107.488 86.3334 107.773 85.9637 108.082 85.6735C108.391 85.3832 108.688 85.1632 108.974 85.0132C109.262 84.8687 109.625 84.7569 110.064 84.678C110.501 84.6024 110.935 84.6036 111.364 84.6815C111.793 84.7595 112.217 84.9203 112.636 85.1639ZM107.44 86.8459C107.275 87.1295 107.143 87.4458 107.044 87.7949C106.946 88.1493 106.92 88.4977 106.965 88.8401C107.013 89.1845 107.115 89.4903 107.272 89.7575C107.429 90.0301 107.669 90.3139 107.99 90.6091C108.31 90.9043 108.655 91.1589 109.023 91.373C109.482 91.6402 109.976 91.8369 110.503 91.9631C110.905 92.0568 111.308 92.0631 111.712 91.9819C112.12 91.9027 112.494 91.7382 112.833 91.4885C113.176 91.2406 113.458 90.9276 113.678 90.5495C113.857 90.2422 113.981 89.9123 114.05 89.5596C114.12 89.2069 114.131 88.8899 114.082 88.6085C114.037 88.329 113.916 88.0238 113.72 87.6928C113.527 87.3638 113.281 87.0559 112.983 86.7691C112.684 86.4824 112.401 86.2614 112.135 86.1062C111.854 85.9432 111.513 85.8007 111.109 85.6789C110.705 85.557 110.331 85.4931 109.987 85.487C109.64 85.4843 109.304 85.5304 108.978 85.6252C108.653 85.7254 108.359 85.8774 108.095 86.0813C107.836 86.2871 107.617 86.542 107.44 86.8459Z" fill="white"/>
<path d="M106.058 100.407C105.796 100.251 105.544 100.072 105.3 99.8705C105.252 99.8306 105.189 99.7755 105.11 99.7052C105.136 99.6556 105.158 99.6203 105.175 99.5992C105.19 99.5812 105.214 99.5581 105.248 99.53C105.704 99.6955 106.146 99.7139 106.572 99.5853C106.998 99.4567 107.386 99.1819 107.735 98.7609C107.919 98.5384 108.05 98.3292 108.126 98.1335C108.257 97.7856 108.325 97.4408 108.329 97.0992C108.336 96.7601 108.284 96.4251 108.172 96.0943C108.064 95.766 107.882 95.4251 107.627 95.0716C107.373 94.7236 107.077 94.41 106.741 94.1308C106.097 93.5972 105.484 93.2536 104.901 93.1C104.321 92.9489 103.8 92.9685 103.337 93.1587C102.878 93.3514 102.505 93.6206 102.219 93.9665L102.047 94.1822C101.878 94.4477 101.771 94.6353 101.725 94.7449C101.607 95.0168 101.531 95.2583 101.498 95.4694C101.465 95.6861 101.471 95.9269 101.515 96.1918C101.557 96.4598 101.642 96.7279 101.769 96.9962L101.742 97.0653C101.73 97.0803 101.702 97.0954 101.659 97.1105C101.59 97.0477 101.546 97.006 101.527 96.9856C101.123 96.4379 100.852 96.0582 100.713 95.8465C100.741 95.7884 100.773 95.7133 100.809 95.6212C100.98 95.1696 101.31 94.6492 101.799 94.0598C102.193 93.5847 102.521 93.2557 102.784 93.073C103.042 92.8908 103.354 92.716 103.722 92.5486C104.089 92.3866 104.473 92.2939 104.873 92.2704C105.273 92.2469 105.698 92.3126 106.148 92.4675C106.601 92.6249 107.031 92.8719 107.437 93.2085C107.822 93.5277 108.115 93.8568 108.316 94.1959C108.519 94.5375 108.68 94.9372 108.798 95.395C108.916 95.8529 108.952 96.3072 108.909 96.7579C108.862 97.2116 108.732 97.6496 108.519 98.0717C108.367 98.3662 108.101 98.742 107.722 99.1991C107.445 99.5328 107.139 99.8097 106.805 100.03C106.473 100.252 106.224 100.378 106.058 100.407Z" fill="white"/>
<path d="M99.5078 97.0902C99.4679 97.231 99.3381 97.4166 99.1186 97.6471C98.9377 97.8144 98.8394 97.9251 98.8237 97.9792C98.8148 98.0173 98.8157 98.0548 98.8264 98.0917C98.8746 98.2401 99.0943 98.5682 99.4856 99.0762C99.9941 99.7357 100.663 100.62 101.493 101.729C102.124 102.576 102.524 103.1 102.692 103.3L102.79 103.417C103.043 103.281 103.424 103.042 103.934 102.701C104.001 102.721 104.045 102.742 104.065 102.766C104.078 102.781 104.09 102.817 104.102 102.873C104.066 102.934 104.035 102.976 104.008 102.998C103.984 103.018 103.926 103.056 103.836 103.112C103.671 103.215 103.461 103.374 103.204 103.59C103.12 103.66 102.981 103.787 102.788 103.97C102.652 104.1 102.575 104.172 102.557 104.187C102.509 104.227 102.448 104.266 102.373 104.304C102.317 104.299 102.271 104.29 102.234 104.275L101.691 104.012L98.0612 102.272L96.5448 101.533C96.8205 102.705 97.1121 103.707 97.4198 104.541C97.4451 104.601 97.4636 104.66 97.4753 104.716C97.4912 104.789 97.5135 104.868 97.5424 104.951C97.5712 105.033 97.6752 105.354 97.8541 105.913C97.9261 106.139 97.9915 106.329 98.0501 106.483C98.2819 107.105 98.4117 107.463 98.4396 107.557C98.4004 107.625 98.3599 107.677 98.318 107.713C98.2702 107.753 98.2064 107.801 98.1266 107.858C97.9516 107.99 97.6758 108.214 97.299 108.531C97.0658 108.727 96.8769 108.891 96.7325 109.023C96.6988 108.995 96.6757 108.973 96.6632 108.958C96.6456 108.937 96.6262 108.905 96.605 108.862C96.6579 108.731 96.7492 108.605 96.8787 108.486C97.1322 108.248 97.2836 108.085 97.3327 107.997C97.3819 107.91 97.3993 107.837 97.385 107.777C97.3678 107.72 97.2686 107.569 97.0875 107.323L96.9096 107.121L96.7331 106.902C96.356 106.453 95.7106 105.71 94.7969 104.671L94.0623 103.788L93.5828 103.227C93.3968 103.006 93.2757 102.883 93.2196 102.859C93.166 102.838 93.0747 102.85 92.9459 102.898C92.7392 102.979 92.4296 103.145 92.017 103.395C91.9835 103.398 91.9567 103.387 91.9366 103.363C91.914 103.336 91.8903 103.305 91.8657 103.27L92.072 103.096C92.2484 102.948 92.4448 102.793 92.6612 102.632C92.875 102.467 92.9894 102.379 93.0044 102.366C93.6173 101.851 94.019 101.503 94.2092 101.323C94.3243 101.211 94.3983 101.141 94.4311 101.113C94.4521 101.096 94.4795 101.083 94.5135 101.074L94.5625 101.133C94.5851 101.16 94.6045 101.192 94.6207 101.229C94.5572 101.354 94.4465 101.496 94.2887 101.654C94.143 101.863 94.0507 102.033 94.0118 102.162C94.0804 102.298 94.2618 102.542 94.5559 102.891L95.3309 103.786C95.4139 103.885 95.564 104.072 95.7813 104.349C95.9955 104.628 96.3578 105.071 96.8681 105.678C97.2728 106.16 97.5914 106.514 97.8239 106.742C97.7868 106.595 97.6959 106.284 97.5513 105.808L97.4753 105.581L97.4617 105.547L96.8058 103.419L96.5345 102.613L96.2256 101.618C96.0761 101.167 95.9399 100.771 95.8169 100.43C95.7582 100.276 95.7134 100.153 95.6825 100.061L95.7894 99.9789C96.9568 100.682 98.2113 101.354 99.553 101.997C100.892 102.643 101.795 103.052 102.262 103.226C102.178 103.077 101.891 102.681 101.4 102.037C100.806 101.25 100.128 100.404 99.3659 99.4983C99.1271 99.2143 98.8372 98.9119 98.4962 98.5913C98.3988 98.4997 98.2913 98.4599 98.1739 98.4719C98.0589 98.4869 97.8434 98.6221 97.5274 98.8776C97.4078 98.9781 97.2866 99.0647 97.1639 99.1372C97.1053 99.11 97.0672 99.0859 97.0496 99.0649C97.037 99.05 97.0231 99.0183 97.0079 98.9698L98.4442 97.8466C98.5459 97.7611 98.6981 97.6204 98.9008 97.4245C99.0129 97.3149 99.1798 97.1644 99.4015 96.9729L99.5078 97.0902Z" fill="white"/>
<path d="M92.6154 107.026C92.8116 107.373 92.9449 107.704 93.0152 108.019C93.0841 108.339 93.1094 108.713 93.0911 109.141C93.0728 109.568 92.9838 109.966 92.8243 110.335C92.6667 110.707 92.3876 111.114 91.9869 111.556C91.7036 111.864 91.2967 112.169 90.7664 112.469C90.4094 112.671 90.034 112.82 89.6401 112.917C89.2429 113.016 88.8568 113.06 88.4818 113.047C88.1068 113.035 87.6799 112.931 87.2011 112.735C86.8688 112.6 86.5736 112.419 86.3153 112.193C85.9765 111.895 85.6955 111.549 85.4724 111.155C85.2185 110.706 85.0521 110.309 84.9731 109.963C84.8908 109.619 84.8699 109.245 84.9104 108.841C84.9432 108.526 85.0707 108.113 85.2929 107.601C85.4397 107.258 85.6706 106.916 85.9856 106.576C86.3024 106.24 86.6835 105.946 87.1289 105.694C87.5811 105.438 88.0138 105.263 88.427 105.168C88.8402 105.074 89.2082 105.034 89.5308 105.049C89.8519 105.069 90.222 105.156 90.6409 105.309C91.0564 105.465 91.4298 105.684 91.7609 105.968C92.0921 106.252 92.3769 106.605 92.6154 107.026ZM87.2816 105.857C86.996 106.018 86.7223 106.225 86.4606 106.476C86.1973 106.733 85.9987 107.02 85.8645 107.338C85.7323 107.66 85.6663 107.976 85.6664 108.285C85.6651 108.6 85.7284 108.966 85.8565 109.383C85.9845 109.799 86.1534 110.193 86.363 110.564C86.6246 111.026 86.9513 111.445 87.3431 111.82C87.6428 112.104 87.9876 112.313 88.3776 112.447C88.7694 112.584 89.175 112.631 89.5943 112.586C90.0155 112.546 90.4165 112.417 90.7973 112.202C91.1067 112.027 91.3804 111.805 91.6185 111.535C91.8566 111.266 92.0256 110.998 92.1256 110.73C92.2275 110.466 92.2774 110.142 92.2752 109.757C92.2749 109.376 92.2182 108.986 92.1051 108.588C91.9919 108.189 91.8594 107.856 91.7074 107.587C91.5478 107.305 91.3245 107.01 91.0375 106.701C90.7506 106.392 90.46 106.148 90.1657 105.969C89.868 105.792 89.5543 105.662 89.2247 105.579C88.8936 105.501 88.563 105.484 88.2329 105.527C87.9047 105.574 87.5876 105.684 87.2816 105.857Z" fill="white"/>
<path d="M85.4108 114.006L85.4967 114.919C85.5233 115.034 85.5292 115.111 85.5146 115.15C85.5014 115.192 85.4783 115.22 85.4454 115.232C85.3795 115.257 85.2751 115.206 85.1319 115.081C85.0272 114.99 84.9486 114.937 84.896 114.919C84.8448 114.905 84.7787 114.906 84.6978 114.924L84.645 114.95L84.4009 115.017L83.1 115.486L81.5715 116.066L81.1217 116.235L80.2775 116.57C80.241 116.584 80.1939 116.598 80.1363 116.611C79.8793 116.682 79.7216 116.729 79.6631 116.751C79.6083 116.771 79.5712 116.806 79.552 116.855C79.5466 116.874 79.5329 117.021 79.511 117.296C79.5032 117.42 79.4646 117.495 79.3951 117.521C79.3659 117.532 79.3265 117.538 79.2772 117.54C79.2314 117.474 79.1976 117.412 79.1756 117.353L79.0988 117.132L78.9183 116.667C78.8758 116.554 78.7477 116.185 78.5341 115.56C78.519 115.52 78.5126 115.48 78.5148 115.442C78.5455 115.401 78.5754 115.375 78.6047 115.364C78.6339 115.353 78.6643 115.357 78.6959 115.374C78.7288 115.395 78.7885 115.471 78.8749 115.601C79.0716 115.903 79.2515 116.104 79.4147 116.206C79.5222 116.27 79.653 116.296 79.807 116.284C79.9574 116.273 80.2923 116.171 80.8116 115.976C81.2286 115.819 81.5349 115.696 81.7305 115.606C81.6829 115.457 81.6365 115.322 81.5912 115.201L80.269 111.811C80.2183 111.676 80.1295 111.417 80.0028 111.035L79.7235 110.307L79.5767 109.899C79.5286 109.771 79.4724 109.688 79.4079 109.65C79.3434 109.611 79.2047 109.603 78.9916 109.624C78.6236 109.666 78.3795 109.7 78.2592 109.724C78.187 109.743 78.1248 109.749 78.0727 109.744L78.011 109.579L78.7982 109.309C79.2275 109.152 79.5527 109.04 79.774 108.974L80.5605 108.635L81.1352 108.382C81.2997 108.32 81.4017 108.286 81.441 108.28L81.5302 108.284C81.5544 108.371 81.5578 108.43 81.5405 108.461C81.5245 108.497 81.4644 108.542 81.3601 108.598C81.2148 108.677 81.0481 108.784 80.8603 108.917C80.6738 109.054 80.5586 109.164 80.5147 109.247C80.4905 109.293 80.4855 109.358 80.4997 109.44C80.5271 109.613 80.6294 109.936 80.8064 110.408L81.1563 111.34L81.942 113.367L82.1286 113.798L82.6837 115.261C82.9237 115.2 83.2229 115.102 83.5813 114.968C84.108 114.77 84.4156 114.617 84.5043 114.509C84.6451 114.339 84.7995 113.939 84.9677 113.308C85.0147 113.078 85.0821 112.946 85.1699 112.913L85.2234 112.906C85.2462 112.922 85.2611 112.94 85.268 112.958C85.2844 113.002 85.3046 113.144 85.3284 113.386C85.3609 113.695 85.3884 113.902 85.4108 114.006Z" fill="white"/>
<path d="M77.4844 117.649C77.4178 117.674 77.3749 117.689 77.3557 117.693C77.2255 117.719 77.0095 117.755 76.7077 117.799C76.5499 117.827 76.4423 117.847 76.3849 117.858C76.3006 117.875 76.1241 117.919 75.8553 117.989L74.8903 118.242C74.6383 118.317 74.3419 118.388 74.001 118.457C73.3998 118.578 72.9038 118.588 72.513 118.487C72.1229 118.39 71.7956 118.179 71.531 117.854C71.2625 117.529 71.0921 117.187 71.0198 116.827C70.8989 116.226 71.0052 115.664 71.3387 115.143C71.6722 114.622 72.1951 114.29 72.9074 114.146C73.1066 114.106 73.277 114.092 73.4188 114.103C73.5613 114.119 73.7302 114.166 73.9257 114.247C74.0084 114.282 74.0629 114.325 74.089 114.375C74.079 114.405 74.0618 114.428 74.0373 114.445C73.9837 114.456 73.9259 114.456 73.8638 114.444C73.7244 114.425 73.5551 114.435 73.3559 114.475C73.0534 114.536 72.7831 114.668 72.545 114.871C72.3031 115.075 72.141 115.329 72.0586 115.632C71.9761 115.935 71.9657 116.24 72.0273 116.547C72.0873 116.845 72.2182 117.12 72.4199 117.37C72.6224 117.624 72.8593 117.812 73.1306 117.933C73.2839 118.001 73.5069 118.04 73.7995 118.049C74.0884 118.059 74.3094 118.048 74.4626 118.017C74.9374 117.922 75.212 117.831 75.2862 117.744L75.2758 117.663L75.1223 117.018L75.105 116.902C75.0918 116.797 75.0637 116.638 75.0206 116.423C74.8636 115.642 74.7543 115.158 74.6928 114.971L74.6282 114.649L74.0258 112.039C74.0181 112.001 74.0096 111.929 74.0003 111.823C73.9871 111.718 73.9729 111.627 73.9575 111.551C73.9205 111.367 73.8771 111.23 73.8272 111.141C73.7299 111.132 73.4491 111.123 72.9849 111.113C72.7681 111.105 72.6493 111.099 72.6286 111.095C72.5957 111.089 72.5639 111.07 72.5332 111.036C72.537 110.976 72.5507 110.935 72.5745 110.914C72.5936 110.891 72.6395 110.871 72.7123 110.857C72.7582 110.848 72.8674 110.836 73.0398 110.821C73.376 110.789 73.638 110.754 73.8257 110.717L74.8286 110.473L75.4352 110.369C75.4735 110.361 75.5838 110.335 75.7661 110.291L75.8019 110.439L75.084 110.733C74.9683 110.792 74.9006 110.841 74.8807 110.881C74.8532 110.942 74.8552 111.052 74.8868 111.209C74.8937 111.243 74.9068 111.318 74.9261 111.434C74.9384 111.515 74.9588 111.626 74.9873 111.768C75.0781 112.22 75.2909 113.179 75.6256 114.646C75.7795 115.332 75.928 116.032 76.0712 116.744L76.0909 116.841C76.1463 117.117 76.2234 117.283 76.3223 117.339C76.4894 117.437 76.8644 117.469 77.4474 117.435C77.475 117.474 77.4915 117.506 77.4969 117.533C77.5031 117.564 77.4989 117.602 77.4844 117.649Z" fill="white"/>
<path d="M66.609 112.024C66.5708 112.06 66.5381 112.082 66.5109 112.091C66.445 112.112 66.3321 112.13 66.1723 112.146C65.794 112.178 65.5606 112.219 65.4718 112.268C65.419 112.347 65.3943 112.457 65.3976 112.598L65.4131 113.008L65.4424 114.496L65.4707 115.198L65.4996 116.669L65.5683 118.338C65.5816 118.736 65.6123 118.96 65.6604 119.009C65.7324 119.082 65.9424 119.12 66.2902 119.123C66.4387 119.124 66.5698 119.132 66.6835 119.149C66.7349 119.175 66.7611 119.21 66.7622 119.253C66.7629 119.284 66.754 119.322 66.7355 119.365C66.7008 119.385 66.6698 119.396 66.6425 119.396C66.5878 119.398 66.5214 119.397 66.4432 119.395C66.2123 119.381 65.9738 119.377 65.7278 119.383L65.2946 119.405L64.2631 119.406C63.7476 119.418 63.3455 119.433 63.0568 119.452C62.7681 119.47 62.573 119.481 62.4715 119.483C62.3817 119.485 62.1589 119.483 61.8031 119.476L60.9715 119.501L60.8715 119.486L60.3857 119.515L60.3264 119.487C60.3062 119.456 60.2917 119.423 60.2831 119.388C60.2818 119.334 60.2896 119.25 60.3064 119.136C60.3194 119.022 60.3255 118.952 60.3249 118.924C60.3153 118.518 60.2935 118.175 60.2595 117.894C60.2629 117.871 60.2742 117.855 60.2935 117.847C60.3365 117.846 60.3757 117.851 60.4111 117.862C60.4558 117.935 60.5175 118.064 60.5961 118.25C60.6708 118.436 60.7833 118.65 60.9337 118.892C61.0352 119.054 61.1136 119.15 61.169 119.18C61.2244 119.21 61.3381 119.223 61.5099 119.219C61.545 119.218 61.7228 119.218 62.0432 119.218C62.1292 119.22 62.2132 119.22 62.2952 119.218L63.9639 119.143L64.1103 119.14C64.3251 119.135 64.4533 119.104 64.495 119.049C64.5591 118.953 64.5858 118.677 64.575 118.22C64.5739 118.174 64.5531 117.705 64.5125 116.815L64.4933 116.001C64.4501 115.99 64.4031 115.986 64.3523 115.987L64.2527 115.989C64.1863 115.991 64.0887 115.991 63.9597 115.99C63.7565 115.987 63.6197 115.986 63.5494 115.988C63.5025 115.989 63.4616 115.992 63.4265 115.997C63.0051 116.022 62.4625 116.043 61.7986 116.059C61.5925 116.099 61.4724 116.143 61.4383 116.19C61.3814 116.262 61.3428 116.447 61.3225 116.744C61.2982 117.042 61.2358 117.211 61.1352 117.252C61.0844 117.254 61.0374 117.245 60.9939 117.227C60.9854 117.195 60.9808 117.166 60.9801 117.139C60.9795 117.112 60.9823 117.067 60.9887 117.004C61.0048 116.859 61.0039 116.406 60.9859 115.644C60.9811 115.441 60.966 115.215 60.9405 114.965C60.9112 114.716 60.8963 114.582 60.8958 114.562C60.895 114.527 60.8998 114.48 60.9101 114.421C60.941 114.405 60.9662 114.396 60.9857 114.396L61.0267 114.395C61.0918 114.503 61.1563 114.671 61.2203 114.9C61.3312 115.292 61.4444 115.536 61.5599 115.631C61.6717 115.73 61.8525 115.776 62.1024 115.77C62.1571 115.769 62.2566 115.763 62.4009 115.751C62.5453 115.744 62.76 115.737 63.0451 115.73L63.4259 115.721C63.9687 115.709 64.3238 115.688 64.4911 115.661L64.4924 115.468L64.4611 114.39L64.4509 113.71L64.4294 113.049C64.4161 112.65 64.3853 112.42 64.337 112.359C64.2685 112.275 64.123 112.235 63.9004 112.24L63.5433 112.255C63.512 112.256 63.3909 112.254 63.1798 112.252C62.9649 112.253 62.7013 112.257 62.3889 112.264C61.6352 112.282 61.1341 112.325 60.8856 112.394C60.6373 112.466 60.435 112.586 60.2787 112.754C60.1186 112.922 59.9219 113.28 59.6887 113.829C59.6183 113.991 59.546 114.072 59.4718 114.074C59.4367 114.075 59.3972 114.06 59.3535 114.03C59.4577 113.641 59.5161 113.385 59.5289 113.264C59.5654 112.99 59.5841 112.71 59.5852 112.424C59.5822 112.296 59.6109 112.187 59.6713 112.1L59.8002 112.097L61.4458 112.041L62.184 112.029L63.9408 111.964L64.6554 111.947C64.7453 111.945 64.8292 111.941 64.9072 111.935C65.6094 111.888 66.1264 111.86 66.4584 111.852C66.517 111.85 66.5582 111.859 66.5821 111.878C66.6021 111.897 66.6125 111.926 66.6135 111.965L66.609 112.024Z" fill="white"/>
<path d="M56.7923 118.435L56.4375 119.281C56.4066 119.395 56.3755 119.466 56.3443 119.493C56.3125 119.524 56.2792 119.538 56.2444 119.533C56.1747 119.524 56.1064 119.43 56.0395 119.252C55.9896 119.123 55.9457 119.038 55.9078 118.998C55.8693 118.961 55.8102 118.931 55.7304 118.909L55.6715 118.907L55.4249 118.851L54.0565 118.651L52.4352 118.441L51.9589 118.378L51.0563 118.275C51.0176 118.27 50.9697 118.26 50.9127 118.244C50.6525 118.186 50.4914 118.153 50.4294 118.145C50.3713 118.137 50.3223 118.15 50.2823 118.184C50.2686 118.198 50.1872 118.321 50.0381 118.554C49.9728 118.659 49.9034 118.707 49.8298 118.697C49.7988 118.693 49.7611 118.68 49.7167 118.659C49.7077 118.579 49.7073 118.508 49.7155 118.446L49.7522 118.214L49.8121 117.72C49.8281 117.6 49.8893 117.214 49.9957 116.562C50.0013 116.519 50.0142 116.482 50.0344 116.449C50.0806 116.427 50.1191 116.419 50.1501 116.423C50.1811 116.427 50.2064 116.444 50.226 116.474C50.2451 116.508 50.2621 116.603 50.2768 116.759C50.3079 117.118 50.3715 117.38 50.4676 117.547C50.5321 117.654 50.6352 117.739 50.7766 117.801C50.9142 117.862 51.258 117.93 51.8078 118.003C52.2492 118.062 52.5774 118.097 52.7925 118.11C52.8208 117.956 52.8435 117.816 52.8605 117.688L53.2939 114.075C53.3129 113.931 53.3567 113.661 53.4253 113.265L53.5222 112.491L53.5852 112.062C53.6032 111.927 53.5929 111.827 53.5541 111.763C53.5154 111.698 53.397 111.626 53.199 111.544C52.8546 111.408 52.6237 111.322 52.5062 111.286C52.4337 111.269 52.3757 111.245 52.3324 111.216L52.3555 111.042L53.1772 111.175C53.6297 111.239 53.9692 111.294 54.1956 111.34L55.049 111.412L55.6751 111.46C55.8494 111.483 55.9553 111.501 55.993 111.514L56.0697 111.559C56.0501 111.647 56.0252 111.701 55.995 111.721C55.9643 111.744 55.8899 111.756 55.7716 111.756C55.6059 111.758 55.4088 111.773 55.1804 111.802C54.9514 111.834 54.798 111.877 54.72 111.93C54.6767 111.959 54.6419 112.014 54.6156 112.093C54.558 112.259 54.4961 112.591 54.4296 113.091L54.2983 114.078L54.0348 116.236L53.9962 116.704L53.7958 118.256C54.0361 118.315 54.346 118.37 54.7255 118.421C55.2831 118.495 55.6265 118.505 55.7558 118.451C55.96 118.368 56.2849 118.088 56.7305 117.612C56.8807 117.431 57.0023 117.346 57.0952 117.359L57.1459 117.377C57.1583 117.402 57.1632 117.425 57.1607 117.444C57.1545 117.491 57.1049 117.626 57.0121 117.85C56.895 118.138 56.8217 118.333 56.7923 118.435Z" fill="white"/>
<path d="M44.6244 116.913L44.7324 116.731L45.4758 116.777C45.6989 116.793 45.8506 116.782 45.9307 116.744C46.0109 116.707 46.0881 116.609 46.1624 116.452C46.233 116.293 46.3376 115.976 46.4763 115.5C46.5288 115.319 46.6112 114.987 46.7237 114.504L46.7581 114.385L46.8124 114.157C46.4494 114.104 45.9453 113.984 45.3003 113.796C44.2464 113.489 43.5927 113.093 43.3393 112.609C43.0858 112.124 43.0421 111.596 43.2081 111.026C43.3829 110.426 43.7971 109.996 44.4509 109.734C45.1047 109.473 45.8536 109.466 46.6974 109.711L47.5356 109.955L47.7977 110.02C48.071 110.087 48.3108 110.151 48.5171 110.211L49.713 110.547C49.8592 110.589 49.9851 110.632 50.0906 110.675C50.0878 110.699 50.0837 110.72 50.0782 110.739C50.0553 110.817 49.988 110.853 49.8765 110.845C49.3717 110.803 49.0815 110.794 49.0057 110.817C48.9262 110.838 48.8488 110.93 48.7733 111.091C48.6979 111.252 48.5876 111.582 48.4423 112.081L48.2675 112.744L47.57 115.202L47.2747 116.3L47.1855 116.585C47.1112 116.84 47.0862 117.01 47.1105 117.094C47.131 117.177 47.2379 117.257 47.4312 117.334C47.7161 117.445 47.9864 117.579 48.2421 117.735C48.2589 117.788 48.2592 117.843 48.2428 117.9L48.0105 117.838L47.6561 117.735L47.3556 117.635L46.3085 117.312C45.8322 117.173 45.2708 117.04 44.6244 116.913ZM46.9219 113.823L47.0996 113.234C47.5004 111.857 47.7064 111.087 47.7174 110.924C47.7247 110.759 47.6585 110.595 47.5187 110.433C47.379 110.27 47.1066 110.129 46.7015 110.012C46.0939 109.835 45.5639 109.873 45.1113 110.128C44.6577 110.387 44.3642 110.745 44.231 111.202C44.0715 111.75 44.1313 112.229 44.4104 112.64C44.6894 113.051 45.1271 113.343 45.7234 113.517C46.3498 113.699 46.7493 113.801 46.9219 113.823Z" fill="white"/>
<path d="M33.4445 112.02L33.3491 112.174C33.2844 112.153 33.2344 112.134 33.1991 112.116L32.7149 111.852C32.3054 111.645 31.8534 111.403 31.359 111.126C31.1621 111.014 30.8558 110.83 30.4402 110.573C29.875 110.225 29.4867 109.928 29.2753 109.683C28.9688 109.324 28.7994 108.962 28.767 108.598C28.7292 108.235 28.8036 107.903 28.9902 107.6C29.2937 107.108 29.8998 106.91 30.8084 107.007L30.8579 106.983C30.5583 106.665 30.3471 106.349 30.2243 106.034C30.1015 105.72 30.0555 105.4 30.0863 105.075C30.1093 104.837 30.2121 104.57 30.3946 104.274C30.7001 103.778 31.1989 103.475 31.891 103.365C32.5777 103.256 33.3167 103.446 34.108 103.934L34.8511 104.392L35.6195 104.832C36.2886 105.235 36.6796 105.472 36.7927 105.542C36.909 105.613 37.0207 105.689 37.1276 105.769L37.0937 105.824C37.0691 105.864 37.0434 105.887 37.0165 105.893C36.9842 105.901 36.9358 105.894 36.871 105.872C36.4021 105.702 36.1318 105.616 36.0602 105.613C35.9832 105.611 35.9131 105.639 35.8501 105.697C35.7282 105.805 35.4971 106.135 35.1567 106.687C35.1259 106.737 35.0886 106.801 35.0448 106.88C34.9141 107.107 34.8384 107.237 34.8179 107.27L34.4981 107.789C33.9567 108.667 33.4941 109.439 33.1101 110.106L32.4968 111.112L32.4249 111.24C32.6829 111.454 32.9169 111.633 33.1269 111.776C33.2644 111.865 33.3703 111.947 33.4445 112.02ZM33.0209 108.275C32.8751 108.139 32.7108 108.015 32.528 107.902C31.8098 107.46 31.2253 107.317 30.7745 107.475C30.3237 107.633 30.002 107.868 29.8092 108.181C29.7231 108.32 29.6592 108.476 29.6176 108.648C29.5706 108.821 29.5694 109.001 29.614 109.189C29.6553 109.375 29.7432 109.549 29.878 109.71C30.1077 109.985 30.3739 110.216 30.6765 110.402C30.9591 110.577 31.2412 110.707 31.5229 110.793C31.5693 110.726 31.6027 110.675 31.6232 110.642C31.6437 110.609 31.6988 110.512 31.7886 110.352C31.8468 110.25 31.9066 110.149 31.9681 110.049L32.3553 109.455L32.5717 109.093L32.9705 108.368L33.0209 108.275ZM33.9404 104.161C33.5969 103.981 33.2779 103.881 32.9833 103.86C32.8475 103.85 32.6677 103.87 32.444 103.92C32.2149 103.971 32.0026 104.07 31.8072 104.216C31.6085 104.359 31.4538 104.521 31.3431 104.7C31.259 104.837 31.1837 105.022 31.1172 105.256C31.0474 105.489 31.0328 105.721 31.0735 105.952C31.1089 106.185 31.2265 106.43 31.4263 106.686C31.6242 106.946 31.8793 107.172 32.1919 107.365C32.797 107.738 33.1433 107.935 33.2308 107.957C33.2813 107.883 33.3178 107.827 33.3403 107.791L33.4491 107.603L33.6848 107.232L33.9463 106.808C34.4182 106.021 34.6849 105.547 34.7465 105.388C34.808 105.229 34.7941 105.05 34.7048 104.853C34.6121 104.653 34.3573 104.423 33.9404 104.161Z" fill="white"/>
<path d="M20.3654 101.554C20.1924 101.766 20.1073 101.897 20.1102 101.947C20.1075 101.997 20.1994 102.126 20.3858 102.333L20.5063 102.48C20.5566 102.535 20.5968 102.584 20.6269 102.627C20.6051 102.68 20.5683 102.737 20.5163 102.795C20.4041 102.721 20.3334 102.671 20.3043 102.645L19.7582 102.104C19.6934 102.036 19.5049 101.863 19.1927 101.585C19.0643 101.471 18.7858 101.249 18.3572 100.92C18.4147 100.861 18.4687 100.815 18.5194 100.782C18.6319 100.814 18.7893 100.904 18.9917 101.053C19.1534 101.171 19.2674 101.228 19.3336 101.224C19.3998 101.22 19.5121 101.129 19.6705 100.952L19.8493 100.742L20.5735 99.9196L20.9445 99.5204L21.6181 98.755L22.2892 98.0188L22.8488 97.3638C23.4306 96.7103 23.7234 96.346 23.7274 96.2711C23.7313 96.1962 23.6468 96.0503 23.4737 95.8334C23.3078 95.5968 23.2134 95.4474 23.1904 95.3851C23.1674 95.3228 23.1793 95.2654 23.226 95.2129C23.2364 95.2012 23.2578 95.1889 23.2903 95.1759C23.3046 95.1834 23.3131 95.1884 23.3161 95.191C23.3307 95.204 23.347 95.2238 23.3652 95.2504C23.6312 95.5919 23.935 95.9146 24.2763 96.2185C24.6673 96.5665 25.1388 96.9209 25.691 97.2818C25.6631 97.3249 25.64 97.3567 25.6219 97.3771C25.6063 97.3946 25.58 97.4182 25.543 97.4481C25.423 97.4301 25.2475 97.3393 25.0167 97.1757C24.7048 96.9503 24.4514 96.947 24.2566 97.1658L23.6995 97.7917L23.551 97.9497L23.3747 98.1301L20.645 101.223L23.9882 100.834C24.2789 100.789 24.6374 100.745 25.0637 100.701C25.4981 100.653 25.9698 100.582 26.4788 100.486L27.2512 100.349C27.433 100.145 27.5486 99.9919 27.598 99.8894C27.6448 99.7898 27.6599 99.717 27.6434 99.671C27.624 99.6223 27.547 99.5119 27.4125 99.3399C27.2437 99.1007 27.1492 98.9512 27.1292 98.8915C27.1062 98.8292 27.1181 98.7718 27.1648 98.7193C27.1752 98.7076 27.1952 98.694 27.2247 98.6785C27.239 98.6859 27.249 98.6923 27.2548 98.6975C27.2665 98.7079 27.2814 98.7264 27.2996 98.753C27.5656 99.0944 27.8708 99.4184 28.2151 99.7249C28.6061 100.073 29.0776 100.427 29.6298 100.788C29.5989 100.829 29.5744 100.859 29.5562 100.88C29.5407 100.897 29.5158 100.922 29.4817 100.955C29.3588 100.934 29.1834 100.843 28.9555 100.682C28.6406 100.454 28.3858 100.45 28.191 100.668L27.6383 101.298L27.4854 101.452L27.3135 101.637L26.9248 102.091L26.4656 102.615L25.1331 104.112C24.7071 104.591 24.4255 104.91 24.2881 105.07C24.1508 105.23 24.0753 105.336 24.0616 105.386C24.0451 105.434 24.0418 105.473 24.0518 105.503C24.0589 105.53 24.1484 105.641 24.3202 105.836L24.4407 105.983C24.491 106.038 24.5312 106.087 24.5613 106.129C24.5395 106.183 24.5027 106.239 24.4507 106.297C24.3414 106.226 24.2722 106.178 24.243 106.152L23.697 105.611C23.6322 105.543 23.4437 105.37 23.1315 105.092C23.0031 104.977 22.7246 104.756 22.296 104.426C22.3506 104.365 22.4031 104.318 22.4538 104.284C22.5692 104.319 22.7267 104.41 22.9261 104.556C23.0966 104.681 23.2133 104.738 23.2763 104.726C23.3366 104.717 23.4462 104.627 23.6049 104.454L23.7837 104.244L24.5079 103.422L24.8789 103.023L25.5569 102.261L26.2236 101.521L26.9512 100.686L25.2766 100.937L24.0483 101.083L22.4283 101.273C21.7 101.357 21.0124 101.45 20.3654 101.554Z" fill="white"/>
<path d="M18.1164 89.0475C18.0739 88.9171 18.0356 88.8206 18.0015 88.758C17.9388 88.6335 17.9257 88.547 17.9622 88.4986C17.9957 88.4526 18.1392 88.3254 18.3928 88.1171C18.6969 87.8147 18.9685 87.4931 19.2077 87.1522C19.2612 87.1699 19.2963 87.1895 19.3132 87.211C19.3637 87.2756 19.3473 87.3877 19.2638 87.5472C18.981 88.0859 18.8254 88.4829 18.797 88.7382C18.7686 88.9936 18.8391 89.2707 19.0085 89.5697C19.178 89.8686 19.7573 90.6503 20.7466 91.9147L21.3335 92.6459L21.5843 92.9854C21.883 93.3418 22.1158 93.5664 22.2825 93.6591C22.45 93.7464 22.6281 93.8029 22.817 93.8287C23.0065 93.8491 23.3967 93.7868 23.9876 93.6419C24.1595 93.6017 24.2695 93.6123 24.3176 93.6739C24.3369 93.6985 24.3487 93.7389 24.3529 93.795C23.8389 93.9939 23.4137 94.2174 23.0773 94.4658C22.9063 94.5896 22.789 94.6615 22.7254 94.6816C22.6593 94.6985 22.6058 94.6809 22.5649 94.6286L22.5324 94.5871C22.5114 94.5539 22.4877 94.5204 22.4612 94.4865C22.2927 94.2712 22.1339 94.1474 21.9848 94.1153C21.8356 94.0832 21.5699 94.1175 21.1875 94.2183C20.8027 94.3161 20.1415 94.5233 19.204 94.8402L18.8267 94.9569L17.597 95.3536L15.3508 96.0769C14.9804 96.1931 14.639 96.3114 14.3265 96.4319L14.1729 96.2545C14.1536 96.2299 14.1263 96.1918 14.0908 96.1401C14.2325 95.8458 14.6536 95.132 15.354 93.9987L17.3107 90.8608C17.5488 90.5059 17.7412 90.2066 17.8878 89.9629C18.029 89.7186 18.1152 89.5594 18.1465 89.4853C18.1754 89.4081 18.1654 89.2622 18.1164 89.0475ZM18.9069 90.1625C18.8395 90.1904 18.7889 90.2176 18.7551 90.2441C18.6689 90.3115 18.5156 90.5307 18.295 90.9017L17.7782 91.7151C16.9672 92.9796 16.3594 93.9809 15.9548 94.719C15.872 94.8731 15.7557 95.0731 15.606 95.3192C15.4782 95.5234 15.4117 95.635 15.4066 95.6538C16.0736 95.5238 16.9104 95.2684 17.9169 94.8876L18.2798 94.7524L20.7548 93.865C20.9184 93.8015 21.0246 93.763 21.0736 93.7495C21.2927 93.6872 21.4314 93.6332 21.4899 93.5874C21.536 93.5513 21.5362 93.504 21.4905 93.4456L21.3441 93.2774C21.3224 93.2498 21.2921 93.2015 21.2532 93.1328C21.2088 93.0634 21.0699 92.8794 20.8364 92.581L19.8465 91.2873L19.2287 90.5357L18.9069 90.1625Z" fill="white"/>
<path d="M16.9583 86.7589C16.9089 86.7409 16.8744 86.7217 16.8546 86.7013C16.8062 86.6518 16.7392 86.5592 16.6536 86.4233C16.4548 86.0998 16.3137 85.9095 16.2301 85.8522C16.1354 85.8406 16.026 85.8679 15.9019 85.9339L15.5426 86.1318L14.2261 86.826L13.6109 87.1667L12.3099 87.8526L10.8496 88.6631C10.4997 88.8538 10.3134 88.9817 10.2906 89.0469C10.2581 89.1439 10.3184 89.3486 10.4714 89.6609C10.5377 89.7938 10.5888 89.9148 10.6248 90.024C10.6245 90.0817 10.6054 90.1206 10.5675 90.1408C10.5399 90.1555 10.5025 90.1643 10.4554 90.1673C10.4217 90.1454 10.3984 90.1224 10.3855 90.0983C10.3598 90.05 10.3304 89.9905 10.2971 89.9197C10.206 89.707 10.1027 89.4921 9.98707 89.2749L9.77299 88.8976L9.30912 87.9763C9.06684 87.5211 8.87262 87.1687 8.72645 86.9191C8.58028 86.6694 8.48334 86.4998 8.43562 86.4101C8.3934 86.3308 8.29568 86.1306 8.14244 85.8095L7.74632 85.0777L7.71503 84.9816L7.471 84.5605L7.46933 84.495C7.48774 84.4631 7.51063 84.4354 7.53799 84.412C7.58626 84.3863 7.66499 84.3555 7.77416 84.3195C7.8815 84.2801 7.94724 84.2539 7.97138 84.2411C8.32999 84.0502 8.627 83.8766 8.86242 83.7203C8.88495 83.7127 8.90425 83.7157 8.92032 83.7293C8.94051 83.7672 8.95369 83.8045 8.95987 83.841C8.91454 83.9138 8.82656 84.027 8.69592 84.1806C8.56345 84.3308 8.42255 84.5275 8.27322 84.7707C8.17429 84.934 8.12387 85.0471 8.12198 85.1101C8.12009 85.1731 8.15953 85.2804 8.24029 85.4321C8.25681 85.4632 8.33687 85.6219 8.48048 85.9083C8.51742 85.986 8.55515 86.061 8.5937 86.1335L9.40939 87.591L9.47822 87.7203C9.57916 87.91 9.66387 88.0109 9.73234 88.0232C9.8463 88.0377 10.105 87.9376 10.5084 87.7229C10.5498 87.7009 10.959 87.472 11.736 87.0363L12.455 86.6536C12.4451 86.6102 12.4283 86.566 12.4044 86.5212L12.3576 86.4333C12.3264 86.3746 12.2822 86.2875 12.2251 86.1719C12.1366 85.9889 12.0758 85.8664 12.0427 85.8043C12.0207 85.763 11.9997 85.7277 11.9797 85.6985C11.7677 85.3334 11.5057 84.8578 11.1937 84.2716C11.0654 84.1054 10.9722 84.0177 10.9144 84.0087C10.8248 83.99 10.6425 84.0384 10.3676 84.1537C10.0908 84.2656 9.91137 84.286 9.82916 84.2147C9.8053 84.1698 9.7919 84.1239 9.78895 84.0768C9.81286 84.0552 9.83689 84.038 9.86103 84.0251C9.88516 84.0123 9.92665 83.9946 9.9855 83.9721C10.1223 83.9215 10.5268 83.7172 11.1992 83.3593C11.3785 83.2638 11.5739 83.1487 11.7854 83.014C11.9951 82.8759 12.1086 82.8022 12.1258 82.793C12.1568 82.7765 12.201 82.7597 12.2582 82.7425C12.2867 82.7627 12.3055 82.7815 12.3147 82.7987L12.334 82.8349C12.2668 82.9415 12.1452 83.0748 11.9693 83.2348C11.6688 83.5098 11.502 83.7203 11.469 83.8661C11.4308 84.0104 11.4704 84.1929 11.5879 84.4136C11.6135 84.4618 11.6638 84.5479 11.7386 84.6718C11.81 84.7976 11.9126 84.9863 12.0466 85.238L12.2256 85.5742C12.4807 86.0535 12.6581 86.3618 12.7577 86.4991L12.9311 86.4134L13.8801 85.9016L14.4828 85.5874L15.0645 85.2712C15.4144 85.0805 15.6059 84.9498 15.6391 84.879C15.6837 84.78 15.6537 84.6323 15.5491 84.4357L15.376 84.123C15.3613 84.0954 15.3079 83.9867 15.2156 83.7968C15.1181 83.6053 14.996 83.3716 14.8491 83.0958C14.4949 82.4303 14.2315 82.0019 14.0588 81.8106C13.8827 81.6211 13.6847 81.4942 13.4646 81.4299C13.2427 81.3622 12.8342 81.3473 12.2393 81.3851C12.0631 81.3949 11.9575 81.367 11.9226 81.3015C11.9061 81.2704 11.9015 81.2286 11.9089 81.176C12.3035 81.0943 12.558 81.0319 12.6722 80.9888C12.9338 80.8982 13.1922 80.7894 13.4476 80.6623C13.5614 80.6017 13.6709 80.5789 13.7761 80.5936L13.8367 80.7074L14.6259 82.1526L14.9676 82.807L15.8142 84.3477L16.1501 84.9787C16.1923 85.058 16.2335 85.1312 16.2737 85.1984C16.6317 85.8044 16.8886 86.2539 17.0447 86.547C17.0722 86.5987 17.0828 86.6395 17.0766 86.6694C17.0685 86.6958 17.0473 86.7182 17.0128 86.7365L16.9583 86.7589Z" fill="white"/>
<path d="M9.3904 79.5938C9.01208 79.7188 8.66171 79.7852 8.33928 79.793C8.01192 79.7983 7.64023 79.7504 7.22421 79.6492C6.8082 79.548 6.43496 79.3834 6.10451 79.1552C5.77035 78.9283 5.42541 78.5753 5.06968 78.0963C4.82229 77.7585 4.603 77.3002 4.41183 76.7216C4.28316 76.3321 4.20947 75.9348 4.19078 75.5296C4.17086 75.1207 4.20338 74.7335 4.28835 74.3681C4.37331 74.0027 4.55842 73.6042 4.84367 73.1726C5.04087 72.8729 5.27562 72.6185 5.54794 72.4092C5.90565 72.1347 6.29964 71.9263 6.72989 71.7842C7.21948 71.6224 7.64155 71.5364 7.9961 71.5263C8.34943 71.5124 8.72049 71.5646 9.10928 71.683C9.41168 71.7764 9.79221 71.9819 10.2509 72.2993C10.5592 72.5101 10.8493 72.803 11.1213 73.178C11.3896 73.5543 11.604 73.9853 11.7645 74.4712C11.9275 74.9645 12.0153 75.423 12.0277 75.8468C12.0402 76.2705 12.0077 76.6391 11.9303 76.9527C11.848 77.2638 11.6908 77.6098 11.4588 77.9909C11.2255 78.3683 10.9375 78.6918 10.5946 78.9614C10.2517 79.231 9.85033 79.4418 9.3904 79.5938ZM11.5752 74.5893C11.4723 74.2777 11.323 73.9692 11.1274 73.6635C10.9269 73.3554 10.6836 73.1046 10.3975 72.9112C10.1077 72.7189 9.81098 72.5928 9.50726 72.5327C9.19861 72.4701 8.82744 72.4611 8.39374 72.5056C7.96004 72.5502 7.54105 72.6393 7.13677 72.7728C6.63234 72.9395 6.15798 73.1785 5.7137 73.4899C5.37707 73.7286 5.10514 74.0262 4.89791 74.3827C4.68697 74.7403 4.56242 75.1291 4.52425 75.549C4.48237 75.9701 4.53006 76.3884 4.66731 76.8038C4.77883 77.1413 4.94353 77.453 5.16142 77.739C5.37931 78.0249 5.60973 78.2429 5.85268 78.393C6.09192 78.5444 6.40044 78.6563 6.77824 78.729C7.15233 78.8029 7.54571 78.823 7.95838 78.7895C8.37105 78.756 8.72389 78.6909 9.01691 78.5941C9.32476 78.4924 9.65809 78.3308 10.0169 78.1094C10.3757 77.888 10.6716 77.6504 10.9045 77.3965C11.1361 77.139 11.3247 76.8566 11.47 76.5494C11.6104 76.2397 11.6915 75.9188 11.7134 75.5865C11.7316 75.2555 11.6855 74.9231 11.5752 74.5893Z" fill="white"/>
</svg>
