<svg width="164" height="159" viewBox="0 0 164 159" fill="none" xmlns="http://www.w3.org/2000/svg">
<g opacity="0.3" clip-path="url(#clip0_942_478)">
<path d="M133.615 158.968H30.2878C22.2517 158.943 14.553 155.834 8.87659 150.323C3.20021 144.811 0.00849922 137.345 0 129.558V29.44C0.00854738 21.6343 3.21253 14.1507 8.90891 8.63123C14.6053 3.11177 22.3288 0.00730534 30.3847 -0.000976562H133.712C141.754 0.0238651 149.457 3.13663 155.135 8.65519C160.812 14.1738 164 21.648 164 29.44V129.558C164.008 133.427 163.228 137.259 161.704 140.834C160.18 144.41 157.943 147.659 155.119 150.394C152.296 153.13 148.943 155.298 145.253 156.775C141.563 158.251 137.608 159.007 133.615 158.999V158.968ZM30.2878 1.43822C22.5804 1.43822 15.1887 4.40488 9.73873 9.68556C4.28877 14.9662 1.22701 22.1284 1.22701 29.5964V129.558C1.22701 137.026 4.28877 144.188 9.73873 149.469C15.1887 154.75 22.5804 157.716 30.2878 157.716H133.615C141.323 157.716 148.714 154.75 154.164 149.469C159.614 144.188 162.676 137.026 162.676 129.558V29.44C162.676 21.972 159.614 14.8098 154.164 9.52913C148.714 4.24844 141.323 1.28179 133.615 1.28179L30.2878 1.43822Z" fill="url(#paint0_linear_942_478)"/>
<path opacity="0.15" d="M8.73215 149.561C11.4861 152.238 14.7578 154.361 18.3597 155.809C21.9615 157.257 25.8227 158.001 29.7216 157.999H133.214C137.121 158.011 140.992 157.276 144.605 155.834C148.218 154.392 151.503 152.273 154.27 149.598C157.037 146.923 159.233 143.744 160.731 140.245C162.229 136.745 163 132.993 163 129.203V28.8261C163.004 25.0393 162.238 21.2889 160.746 17.7896C159.254 14.2902 157.065 11.1107 154.304 8.43308C151.543 5.75542 148.265 3.63219 144.657 2.18496C141.049 0.737729 137.183 -0.00508674 133.278 -0.000959457H29.7863C25.879 -0.00508098 22.009 0.737283 18.3975 2.18375C14.786 3.63021 11.5035 5.75245 8.73761 8.42929C5.97169 11.1061 3.77647 14.2851 2.27727 17.7848C0.778068 21.2845 0.0042571 25.0363 1.22904e-05 28.8261V129.203C-0.00354774 132.988 0.766327 136.736 2.26514 140.23C3.76395 143.724 5.96198 146.896 8.73215 149.561Z" fill="url(#paint1_linear_942_478)"/>
<path style="mix-blend-mode:screen" opacity="0.5" d="M163 72.8855V28.5631C163 20.9874 159.869 13.722 154.295 8.36525C148.721 3.00845 141.161 -0.00095965 133.278 -0.00095965H29.7863C25.879 -0.00504357 22.009 0.730547 18.3975 2.16381C14.7859 3.59708 11.5035 5.69995 8.7376 8.35237C5.97168 11.0048 3.77646 14.1548 2.27726 17.6226C0.778056 21.0903 0.00424481 24.8079 0 28.5631V74.999C52.4265 56.1099 110.062 55.3625 163 72.8855Z" fill="url(#paint2_linear_942_478)"/>
</g>
<defs>
<linearGradient id="paint0_linear_942_478" x1="82.0161" y1="158.968" x2="82.0161" y2="0.0615924" gradientUnits="userSpaceOnUse">
<stop stop-color="#A2A2A2"/>
<stop offset="0.47" stop-color="#6D6D6D"/>
<stop offset="1" stop-color="#363636"/>
</linearGradient>
<linearGradient id="paint1_linear_942_478" x1="154.138" y1="8.49973" x2="13.1754" y2="153.87" gradientUnits="userSpaceOnUse">
<stop stop-color="white"/>
<stop offset="1" stop-color="#989897"/>
</linearGradient>
<linearGradient id="paint2_linear_942_478" x1="81.6141" y1="118.306" x2="81.5184" y2="0.0462735" gradientUnits="userSpaceOnUse">
<stop/>
<stop offset="0.12" stop-color="#060606"/>
<stop offset="0.29" stop-color="#171717"/>
<stop offset="0.48" stop-color="#333333"/>
<stop offset="0.69" stop-color="#5A5A5A"/>
<stop offset="0.91" stop-color="#8B8B8B"/>
<stop offset="1" stop-color="#A2A2A2"/>
</linearGradient>
<clipPath id="clip0_942_478">
<rect width="164" height="159" fill="white" transform="translate(0 -0.000976562)"/>
</clipPath>
</defs>
</svg>
