<svg width="159" height="159" viewBox="0 0 159 159" fill="none" xmlns="http://www.w3.org/2000/svg">
<g opacity="0.3" clip-path="url(#clip0_942_471)">
<path d="M129.542 158.968H29.3644C21.5733 158.943 14.1093 155.834 8.60596 150.323C3.10264 144.811 0.00824009 137.345 0 129.558V29.44C0.00828679 21.6343 3.11459 14.1507 8.6373 8.63123C14.16 3.11177 21.6481 0.00730534 29.4583 -0.000976562H129.636C137.432 0.0238651 144.901 3.13663 150.405 8.65519C155.909 14.1738 159 21.648 159 29.44V129.558C159.008 133.427 158.252 137.259 156.774 140.834C155.297 144.41 153.127 147.659 150.39 150.394C147.653 153.13 144.402 155.298 140.825 156.775C137.247 158.251 133.412 159.007 129.542 158.999V158.968ZM29.3644 1.43822C21.892 1.43822 14.7256 4.40488 9.44182 9.68556C4.15801 14.9662 1.1896 22.1284 1.1896 29.5964V129.558C1.1896 137.026 4.15801 144.188 9.44182 149.469C14.7256 154.75 21.892 157.716 29.3644 157.716H129.542C137.014 157.716 144.18 154.75 149.464 149.469C154.748 144.188 157.716 137.026 157.716 129.558V29.44C157.716 21.972 154.748 14.8098 149.464 9.52913C144.18 4.24844 137.014 1.28179 129.542 1.28179L29.3644 1.43822Z" fill="url(#paint0_linear_942_471)"/>
<path opacity="0.15" d="M8.4643 149.561C11.1338 152.238 14.3051 154.361 17.7965 155.809C21.2879 157.257 25.0305 158.001 28.8099 157.999H129.127C132.915 158.011 136.667 157.276 140.169 155.834C143.672 154.392 146.855 152.273 149.538 149.598C152.22 146.923 154.348 143.744 155.8 140.245C157.253 136.745 158 132.993 158 129.203V28.8261C158.004 25.0393 157.262 21.2889 155.815 17.7896C154.369 14.2902 152.247 11.1107 149.571 8.43308C146.895 5.75542 143.717 3.63219 140.22 2.18496C136.723 0.737729 132.975 -0.00508674 129.19 -0.000959457H28.8726C25.0851 -0.00508098 21.3339 0.737283 17.8332 2.18375C14.3324 3.63021 11.1507 5.75245 8.46958 8.42929C5.78851 11.1061 3.66062 14.2851 2.20741 17.7848C0.754201 21.2845 0.00412651 25.0363 1.19134e-05 28.8261V129.203C-0.00343892 132.988 0.74282 136.736 2.19566 140.23C3.64849 143.724 5.77909 146.896 8.4643 149.561Z" fill="url(#paint1_linear_942_471)"/>
<path style="mix-blend-mode:screen" opacity="0.5" d="M158 92.8825V28.6026C158 21.0164 154.965 13.741 149.562 8.37682C144.159 3.01262 136.831 -0.000959627 129.19 -0.000959627H28.8726C25.0851 -0.00504919 21.3339 0.731558 17.8331 2.16681C14.3324 3.60206 11.1506 5.70784 8.46957 8.36392C5.7885 11.02 3.66061 14.1744 2.2074 17.6469C0.754189 21.1195 0.0041146 24.8422 0 28.6026V94.999C50.8183 76.0838 106.686 75.3354 158 92.8825Z" fill="url(#paint2_linear_942_471)"/>
</g>
<defs>
<linearGradient id="paint0_linear_942_471" x1="79.5156" y1="158.968" x2="79.5156" y2="0.0615924" gradientUnits="userSpaceOnUse">
<stop stop-color="#A2A2A2"/>
<stop offset="0.47" stop-color="#6D6D6D"/>
<stop offset="1" stop-color="#363636"/>
</linearGradient>
<linearGradient id="paint1_linear_942_471" x1="149.41" y1="8.49973" x2="8.38049" y2="149.477" gradientUnits="userSpaceOnUse">
<stop stop-color="white"/>
<stop offset="1" stop-color="#989897"/>
</linearGradient>
<linearGradient id="paint2_linear_942_471" x1="79.1106" y1="155.687" x2="78.9396" y2="0.0612891" gradientUnits="userSpaceOnUse">
<stop/>
<stop offset="0.12" stop-color="#060606"/>
<stop offset="0.29" stop-color="#171717"/>
<stop offset="0.48" stop-color="#333333"/>
<stop offset="0.69" stop-color="#5A5A5A"/>
<stop offset="0.91" stop-color="#8B8B8B"/>
<stop offset="1" stop-color="#A2A2A2"/>
</linearGradient>
<clipPath id="clip0_942_471">
<rect width="159" height="159" fill="white" transform="translate(0 -0.000976562)"/>
</clipPath>
</defs>
</svg>
