<svg width="50" height="1600" viewBox="0 0 50 1600" fill="none" xmlns="http://www.w3.org/2000/svg">
<rect x="26" y="1600" width="1.99993" height="1600" transform="rotate(-180 26 1600)" fill="#111113"/>
<circle cx="25" cy="800" r="24" transform="rotate(-90 25 800)" fill="#111113" stroke="white" stroke-opacity="0.2"/>
<mask id="mask0_908_328" style="mask-type:alpha" maskUnits="userSpaceOnUse" x="15" y="790" width="20" height="20">
<rect x="15" y="790" width="20" height="20" fill="#D9D9D9"/>
</mask>
<g mask="url(#mask0_908_328)">
<path d="M17 795.429L17 791.755L17.7742 791.755L17.7742 794.184C18.6344 793.136 19.7025 792.344 20.9783 791.806C22.2542 791.269 23.5948 791 25 791C26.4052 791 27.7492 791.262 29.032 791.786C30.3154 792.309 31.38 793.109 32.2258 794.184L32.2258 791.755L33 791.755L33 795.429L29.129 795.429L29.129 794.694L31.6663 794.694C30.835 793.769 29.8423 793.041 28.6883 792.511C27.5342 791.98 26.3048 791.714 25 791.714C23.6952 791.714 22.4586 791.973 21.2901 792.49C20.1215 793.007 19.1361 793.742 18.3337 794.694L20.871 794.694L20.871 795.429L17 795.429ZM24.0968 808C23.9681 808 23.8284 807.976 23.6777 807.928C23.527 807.881 23.3942 807.797 23.2792 807.674L18.8498 803.49L20.0111 802.388C20.1542 802.252 20.3153 802.16 20.4942 802.113C20.6738 802.065 20.8569 802.068 21.0434 802.122L22.8498 802.551L22.8498 796.653C22.8498 796.218 23.0074 795.85 23.3226 795.551C23.6378 795.252 24.0249 795.103 24.4839 795.103C24.9429 795.103 25.33 795.252 25.6452 795.551C25.9603 795.85 26.1179 796.218 26.1179 796.653L26.1179 799.837L27.2792 799.837L27.2586 799.837L29.9889 801.061C30.4479 801.238 30.7779 801.538 30.9788 801.96C31.1791 802.381 31.2362 802.83 31.1502 803.307L30.5917 807.103C30.5484 807.361 30.4228 807.575 30.215 807.745C30.0071 807.915 29.7597 808 29.4728 808L24.0968 808ZM24.0968 806.939L29.4728 806.939L30.0973 802.796C30.1255 802.687 30.1217 802.572 30.0859 802.45C30.0502 802.327 29.9679 802.238 29.8392 802.184L27.2152 801.001L25 801.001L25 796.653C25 796.517 24.9498 796.402 24.8493 796.306C24.7488 796.211 24.627 796.163 24.4839 796.163C24.3407 796.163 24.2224 796.211 24.1288 796.306C24.0359 796.402 23.9822 796.517 23.9677 796.653L23.9677 803.919L20.7853 803.164L20.4405 803.49L24.0968 806.939Z" fill="white"/>
</g>
</svg>
