<svg width="20" height="20" viewBox="0 0 20 20" fill="none" xmlns="http://www.w3.org/2000/svg">
<g opacity="0.2">
<mask id="mask0_474_2" style="mask-type:alpha" maskUnits="userSpaceOnUse" x="0" y="0" width="20" height="20">
<rect width="20" height="20" fill="#D9D9D9"/>
</mask>
<g mask="url(#mask0_474_2)">
<path d="M10 19C8.755 19 7.585 18.7637 6.49 18.2912C5.395 17.8187 4.4425 17.1775 3.6325 16.3675C2.8225 15.5575 2.18125 14.605 1.70875 13.51C1.23625 12.415 1 11.245 1 10C1 8.755 1.23625 7.585 1.70875 6.49C2.18125 5.395 2.8225 4.4425 3.6325 3.6325C4.4425 2.8225 5.395 2.18125 6.49 1.70875C7.585 1.23625 8.755 1 10 1C11.245 1 12.415 1.23625 13.51 1.70875C14.605 2.18125 15.5575 2.8225 16.3675 3.6325C17.1775 4.4425 17.8187 5.395 18.2912 6.49C18.7637 7.585 19 8.755 19 10C19 11.245 18.7637 12.415 18.2912 13.51C17.8187 14.605 17.1775 15.5575 16.3675 16.3675C15.5575 17.1775 14.605 17.8187 13.51 18.2912C12.415 18.7637 11.245 19 10 19ZM10 17.2C12.01 17.2 13.7125 16.5025 15.1075 15.1075C16.5025 13.7125 17.2 12.01 17.2 10C17.2 7.99 16.5025 6.2875 15.1075 4.8925C13.7125 3.4975 12.01 2.8 10 2.8C7.99 2.8 6.2875 3.4975 4.8925 4.8925C3.4975 6.2875 2.8 7.99 2.8 10C2.8 12.01 3.4975 13.7125 4.8925 15.1075C6.2875 16.5025 7.99 17.2 10 17.2Z" fill="white"/>
</g>
</g>
</svg>
