<svg width="160" height="159" viewBox="0 0 160 159" fill="none" xmlns="http://www.w3.org/2000/svg">
<g opacity="0.3" clip-path="url(#clip0_942_453)">
<path d="M130.356 158.968H29.5491C21.709 158.943 14.198 155.834 8.66009 150.323C3.12215 144.811 0.00829192 137.345 0 129.558V29.44C0.00833891 21.6343 3.13417 14.1507 8.69162 8.63123C14.2491 3.11177 21.7842 0.00730534 29.6436 -0.000976562H130.451C138.296 0.0238651 145.812 3.13663 151.351 8.65519C156.89 14.1738 160 21.648 160 29.44V129.558C160.008 133.427 159.247 137.259 157.76 140.834C156.274 144.41 154.09 147.659 151.336 150.394C148.582 153.13 145.311 155.298 141.71 156.775C138.11 158.251 134.251 159.007 130.356 158.999V158.968ZM29.5491 1.43822C22.0297 1.43822 14.8182 4.40488 9.5012 9.68556C4.18417 14.9662 1.19709 22.1284 1.19709 29.5964V129.558C1.19709 137.026 4.18417 144.188 9.5012 149.469C14.8182 154.75 22.0297 157.716 29.5491 157.716H130.356C137.876 157.716 145.087 154.75 150.404 149.469C155.721 144.188 158.708 137.026 158.708 129.558V29.44C158.708 21.972 155.721 14.8098 150.404 9.52913C145.087 4.24844 137.876 1.28179 130.356 1.28179L29.5491 1.43822Z" fill="url(#paint0_linear_942_453)"/>
<path opacity="0.15" d="M8.51787 149.561C11.2043 152.238 14.3957 154.361 17.9091 155.809C21.4226 157.257 25.189 158.001 28.9923 157.999H129.945C133.756 158.011 137.532 157.276 141.056 155.834C144.581 154.392 147.785 152.273 150.484 149.598C153.183 146.923 155.325 143.744 156.786 140.245C158.248 136.745 159 132.993 159 129.203V28.8261C159.004 25.0393 158.257 21.2889 156.802 17.7896C155.346 14.2902 153.211 11.1107 150.518 8.43308C147.825 5.75542 144.627 3.63219 141.107 2.18496C137.588 0.737729 133.816 -0.00508674 130.008 -0.000959457H29.0554C25.2439 -0.00508098 21.4689 0.737283 17.946 2.18375C14.4231 3.63021 11.2212 5.75245 8.52319 8.42929C5.82515 11.1061 3.68379 14.2851 2.22138 17.7848C0.758974 21.2845 0.00415263 25.0363 1.19888e-05 28.8261V129.203C-0.00346068 132.988 0.747522 136.736 2.20955 140.23C3.67159 143.724 5.81567 146.896 8.51787 149.561Z" fill="url(#paint1_linear_942_453)"/>
<path style="mix-blend-mode:screen" opacity="0.5" d="M159 110.202V24.305C159 17.8589 155.945 11.6769 150.508 7.11878C145.071 2.56071 137.697 1.43904e-05 130.008 1.43904e-05H29.0554C25.2439 -0.0034606 21.4689 0.62245 17.946 1.84201C14.4231 3.06157 11.2212 4.85089 8.52318 7.10782C5.82514 9.36475 3.68378 12.0451 2.22137 14.9958C0.758963 17.9465 0.00414064 21.1098 0 24.305V112C51.14 95.9273 107.361 95.2914 159 110.202Z" fill="url(#paint2_linear_942_453)"/>
</g>
<defs>
<linearGradient id="paint0_linear_942_453" x1="80.0157" y1="158.968" x2="80.0157" y2="0.0615924" gradientUnits="userSpaceOnUse">
<stop stop-color="#A2A2A2"/>
<stop offset="0.47" stop-color="#6D6D6D"/>
<stop offset="1" stop-color="#363636"/>
</linearGradient>
<linearGradient id="paint1_linear_942_453" x1="150.356" y1="8.49973" x2="9.3286" y2="150.367" gradientUnits="userSpaceOnUse">
<stop stop-color="white"/>
<stop offset="1" stop-color="#989897"/>
</linearGradient>
<linearGradient id="paint2_linear_942_453" x1="79.6113" y1="155.2" x2="79.4424" y2="0.0620669" gradientUnits="userSpaceOnUse">
<stop/>
<stop offset="0.12" stop-color="#060606"/>
<stop offset="0.29" stop-color="#171717"/>
<stop offset="0.48" stop-color="#333333"/>
<stop offset="0.69" stop-color="#5A5A5A"/>
<stop offset="0.91" stop-color="#8B8B8B"/>
<stop offset="1" stop-color="#A2A2A2"/>
</linearGradient>
<clipPath id="clip0_942_453">
<rect width="160" height="159" fill="white" transform="translate(0 -0.000976562)"/>
</clipPath>
</defs>
</svg>
